G75*
%MOIN*%
%OFA0B0*%
%FSLAX25Y25*%
%IPPOS*%
%LPD*%
%AMOC8*
5,1,8,0,0,1.08239X$1,22.5*
%
%ADD10C,0.00600*%
%ADD11R,0.04331X0.03937*%
%ADD12R,0.11811X0.03937*%
%ADD13C,0.00000*%
%ADD14C,0.03012*%
%ADD15R,0.02992X0.03150*%
%ADD16C,0.01587*%
%ADD17C,0.00800*%
%ADD18C,0.02000*%
D10*
X0055050Y0055954D02*
X0055198Y0055954D01*
X0074587Y0055954D01*
X0074735Y0055954D01*
X0074735Y0059498D01*
X0167262Y0059498D01*
X0167409Y0059498D01*
X0171585Y0057812D02*
X0187193Y0042285D01*
X0190050Y0043100D02*
X0187550Y0045600D01*
X0187550Y0050300D01*
X0199104Y0050300D01*
X0201052Y0051107D01*
X0202543Y0052598D01*
X0203350Y0054546D01*
X0203350Y0055600D01*
X0203374Y0055781D01*
X0203555Y0056095D01*
X0203869Y0056276D01*
X0204050Y0056300D01*
X0219663Y0056300D01*
X0220263Y0055700D01*
X0221837Y0055700D01*
X0222950Y0056813D01*
X0222950Y0058387D01*
X0222537Y0058800D01*
X0224550Y0058800D01*
X0224650Y0058787D01*
X0224650Y0057313D01*
X0225763Y0056200D01*
X0227337Y0056200D01*
X0228450Y0057313D01*
X0228450Y0058887D01*
X0227337Y0060000D01*
X0227264Y0060000D01*
X0226966Y0060516D01*
X0226966Y0060516D01*
X0226966Y0060516D01*
X0226561Y0060750D01*
X0226577Y0060748D01*
X0227550Y0060345D01*
X0228295Y0059600D01*
X0228698Y0058627D01*
X0228750Y0058100D01*
X0228750Y0057189D01*
X0229661Y0055611D01*
X0229661Y0055611D01*
X0229661Y0055611D01*
X0231239Y0054700D01*
X0234819Y0054700D01*
X0234819Y0053659D01*
X0235346Y0053131D01*
X0240423Y0053131D01*
X0240950Y0053659D01*
X0240950Y0058341D01*
X0240423Y0058868D01*
X0235346Y0058868D01*
X0234819Y0058341D01*
X0234819Y0057300D01*
X0232150Y0057300D01*
X0231943Y0057327D01*
X0231584Y0057534D01*
X0231377Y0057893D01*
X0231350Y0058100D01*
X0231350Y0059154D01*
X0230543Y0061102D01*
X0230543Y0061102D01*
X0229052Y0062593D01*
X0227104Y0063400D01*
X0195022Y0063400D01*
X0195281Y0063659D01*
X0195281Y0067900D01*
X0229584Y0067900D01*
X0231496Y0068692D01*
X0232958Y0070154D01*
X0232958Y0070154D01*
X0233430Y0071293D01*
X0234450Y0072313D01*
X0234450Y0073887D01*
X0234241Y0074096D01*
X0234319Y0074231D01*
X0234819Y0074520D01*
X0234819Y0073659D01*
X0235346Y0073131D01*
X0240423Y0073131D01*
X0240950Y0073659D01*
X0240950Y0078341D01*
X0240423Y0078868D01*
X0235346Y0078868D01*
X0234819Y0078341D01*
X0234819Y0077300D01*
X0234325Y0077300D01*
X0232375Y0076175D01*
X0232375Y0076175D01*
X0232375Y0076175D01*
X0231607Y0074844D01*
X0230650Y0073887D01*
X0230650Y0072313D01*
X0231036Y0071927D01*
X0230878Y0071544D01*
X0230106Y0070772D01*
X0229096Y0070354D01*
X0228550Y0070300D01*
X0187550Y0070300D01*
X0187550Y0088100D01*
X0188050Y0088600D01*
X0208244Y0088600D01*
X0208244Y0084525D01*
X0208772Y0083998D01*
X0221328Y0083998D01*
X0221855Y0084525D01*
X0221855Y0088600D01*
X0239050Y0088600D01*
X0241550Y0086100D01*
X0241550Y0044600D01*
X0240050Y0043100D01*
X0221855Y0043100D01*
X0221855Y0047475D01*
X0221328Y0048002D01*
X0208772Y0048002D01*
X0208244Y0047475D01*
X0208244Y0043100D01*
X0190050Y0043100D01*
X0189587Y0043563D02*
X0208244Y0043563D01*
X0208244Y0044161D02*
X0188989Y0044161D01*
X0188390Y0044760D02*
X0208244Y0044760D01*
X0208244Y0045358D02*
X0187792Y0045358D01*
X0187550Y0045957D02*
X0208244Y0045957D01*
X0208244Y0046555D02*
X0187550Y0046555D01*
X0187550Y0047154D02*
X0208244Y0047154D01*
X0208522Y0047752D02*
X0187550Y0047752D01*
X0187550Y0048351D02*
X0228717Y0048351D01*
X0228717Y0048343D02*
X0229124Y0047361D01*
X0229875Y0046609D01*
X0230857Y0046202D01*
X0231920Y0046202D01*
X0232902Y0046609D01*
X0233653Y0047361D01*
X0234060Y0048343D01*
X0234060Y0049405D01*
X0233653Y0050387D01*
X0232902Y0051139D01*
X0231920Y0051546D01*
X0230857Y0051546D01*
X0229875Y0051139D01*
X0229124Y0050387D01*
X0228717Y0049405D01*
X0228717Y0048343D01*
X0228717Y0048949D02*
X0187550Y0048949D01*
X0187550Y0049548D02*
X0228776Y0049548D01*
X0229024Y0050146D02*
X0187550Y0050146D01*
X0187550Y0052900D02*
X0187550Y0058800D01*
X0189609Y0058800D01*
X0189150Y0058341D01*
X0189150Y0053659D01*
X0189677Y0053131D01*
X0194753Y0053131D01*
X0195281Y0053659D01*
X0195281Y0054200D01*
X0196837Y0054200D01*
X0197950Y0055313D01*
X0197950Y0056887D01*
X0196837Y0058000D01*
X0195281Y0058000D01*
X0195281Y0058341D01*
X0194822Y0058800D01*
X0202993Y0058800D01*
X0201634Y0058016D01*
X0200750Y0056484D01*
X0200750Y0055600D01*
X0200698Y0055073D01*
X0200295Y0054100D01*
X0199550Y0053355D01*
X0198577Y0052952D01*
X0198050Y0052900D01*
X0187550Y0052900D01*
X0187550Y0053139D02*
X0189670Y0053139D01*
X0189150Y0053737D02*
X0187550Y0053737D01*
X0187550Y0054336D02*
X0189150Y0054336D01*
X0189150Y0054934D02*
X0187550Y0054934D01*
X0187550Y0055533D02*
X0189150Y0055533D01*
X0189150Y0056132D02*
X0187550Y0056132D01*
X0187550Y0056730D02*
X0189150Y0056730D01*
X0189150Y0057329D02*
X0187550Y0057329D01*
X0187550Y0057927D02*
X0189150Y0057927D01*
X0189334Y0058526D02*
X0187550Y0058526D01*
X0192315Y0056100D02*
X0196050Y0056100D01*
X0197950Y0056132D02*
X0200750Y0056132D01*
X0200743Y0055533D02*
X0197950Y0055533D01*
X0197571Y0054934D02*
X0200641Y0054934D01*
X0200393Y0054336D02*
X0196973Y0054336D01*
X0195281Y0053737D02*
X0199932Y0053737D01*
X0199028Y0053139D02*
X0194761Y0053139D01*
X0192215Y0056000D02*
X0192217Y0056017D01*
X0192221Y0056034D01*
X0192228Y0056050D01*
X0192238Y0056064D01*
X0192251Y0056077D01*
X0192265Y0056087D01*
X0192281Y0056094D01*
X0192298Y0056098D01*
X0192315Y0056100D01*
X0196910Y0057927D02*
X0201583Y0057927D01*
X0201634Y0058016D02*
X0201634Y0058016D01*
X0201634Y0058016D01*
X0201237Y0057329D02*
X0197508Y0057329D01*
X0197950Y0056730D02*
X0200892Y0056730D01*
X0203350Y0055533D02*
X0229796Y0055533D01*
X0229361Y0056132D02*
X0222269Y0056132D01*
X0222867Y0056730D02*
X0225233Y0056730D01*
X0224650Y0057329D02*
X0222950Y0057329D01*
X0222950Y0057927D02*
X0224650Y0057927D01*
X0224650Y0058526D02*
X0222811Y0058526D01*
X0227078Y0060321D02*
X0227574Y0060321D01*
X0227614Y0059723D02*
X0228172Y0059723D01*
X0228213Y0059124D02*
X0228492Y0059124D01*
X0228450Y0058526D02*
X0228708Y0058526D01*
X0228750Y0057927D02*
X0228450Y0057927D01*
X0228450Y0057329D02*
X0228750Y0057329D01*
X0229015Y0056730D02*
X0227867Y0056730D01*
X0230833Y0054934D02*
X0203350Y0054934D01*
X0203263Y0054336D02*
X0234819Y0054336D01*
X0234819Y0053737D02*
X0203015Y0053737D01*
X0202767Y0053139D02*
X0235339Y0053139D01*
X0233750Y0055900D02*
X0233850Y0056000D01*
X0237550Y0056000D01*
X0237885Y0056000D01*
X0240950Y0056132D02*
X0241550Y0056132D01*
X0241550Y0056730D02*
X0240950Y0056730D01*
X0240950Y0057329D02*
X0241550Y0057329D01*
X0241550Y0057927D02*
X0240950Y0057927D01*
X0240766Y0058526D02*
X0241550Y0058526D01*
X0241550Y0059124D02*
X0231350Y0059124D01*
X0231350Y0058526D02*
X0235004Y0058526D01*
X0234819Y0057927D02*
X0231373Y0057927D01*
X0231941Y0057329D02*
X0234819Y0057329D01*
X0231115Y0059723D02*
X0241550Y0059723D01*
X0241550Y0060321D02*
X0230867Y0060321D01*
X0230619Y0060920D02*
X0241550Y0060920D01*
X0241550Y0061518D02*
X0230127Y0061518D01*
X0229529Y0062117D02*
X0241550Y0062117D01*
X0241550Y0062715D02*
X0228758Y0062715D01*
X0229052Y0062593D02*
X0229052Y0062593D01*
X0227313Y0063314D02*
X0235164Y0063314D01*
X0235346Y0063131D02*
X0240423Y0063131D01*
X0240950Y0063659D01*
X0240950Y0068341D01*
X0240423Y0068868D01*
X0235346Y0068868D01*
X0234819Y0068341D01*
X0234819Y0067226D01*
X0234452Y0067594D01*
X0233048Y0067594D01*
X0232056Y0066602D01*
X0232056Y0065198D01*
X0233048Y0064206D01*
X0234452Y0064206D01*
X0234819Y0064574D01*
X0234819Y0063659D01*
X0235346Y0063131D01*
X0234819Y0063912D02*
X0195281Y0063912D01*
X0195281Y0064511D02*
X0232744Y0064511D01*
X0232146Y0065109D02*
X0195281Y0065109D01*
X0195281Y0065708D02*
X0232056Y0065708D01*
X0232056Y0066306D02*
X0195281Y0066306D01*
X0195281Y0066905D02*
X0232359Y0066905D01*
X0232958Y0067503D02*
X0195281Y0067503D01*
X0187550Y0070496D02*
X0229439Y0070496D01*
X0230428Y0071094D02*
X0187550Y0071094D01*
X0187550Y0071693D02*
X0230940Y0071693D01*
X0230672Y0072291D02*
X0187550Y0072291D01*
X0187550Y0072890D02*
X0230650Y0072890D01*
X0230650Y0073488D02*
X0195337Y0073488D01*
X0195406Y0073607D02*
X0195481Y0073887D01*
X0195481Y0075700D01*
X0192515Y0075700D01*
X0192515Y0072931D01*
X0194526Y0072931D01*
X0194805Y0073006D01*
X0195056Y0073151D01*
X0195261Y0073356D01*
X0195406Y0073607D01*
X0195481Y0074087D02*
X0230850Y0074087D01*
X0231448Y0074685D02*
X0195481Y0074685D01*
X0195481Y0075284D02*
X0231861Y0075284D01*
X0232207Y0075882D02*
X0192515Y0075882D01*
X0192515Y0075700D02*
X0192515Y0076300D01*
X0191915Y0076300D01*
X0191915Y0075700D01*
X0188950Y0075700D01*
X0188950Y0073887D01*
X0189025Y0073607D01*
X0189170Y0073356D01*
X0189375Y0073151D01*
X0189625Y0073006D01*
X0189905Y0072931D01*
X0191915Y0072931D01*
X0191915Y0075700D01*
X0192515Y0075700D01*
X0192515Y0075284D02*
X0191915Y0075284D01*
X0191933Y0075717D02*
X0191415Y0075200D01*
X0188250Y0075200D01*
X0187550Y0075284D02*
X0188950Y0075284D01*
X0188950Y0074685D02*
X0187550Y0074685D01*
X0187550Y0074087D02*
X0188950Y0074087D01*
X0189093Y0073488D02*
X0187550Y0073488D01*
X0187550Y0075882D02*
X0191915Y0075882D01*
X0191933Y0075717D02*
X0192215Y0076000D01*
X0191915Y0076300D02*
X0188950Y0076300D01*
X0188950Y0078113D01*
X0189025Y0078393D01*
X0189170Y0078644D01*
X0189375Y0078849D01*
X0189625Y0078994D01*
X0189905Y0079068D01*
X0191915Y0079068D01*
X0191915Y0076300D01*
X0191915Y0076481D02*
X0192515Y0076481D01*
X0192515Y0076300D02*
X0192515Y0079068D01*
X0194526Y0079068D01*
X0194805Y0078994D01*
X0195056Y0078849D01*
X0195261Y0078644D01*
X0195406Y0078393D01*
X0195481Y0078113D01*
X0195481Y0076300D01*
X0192515Y0076300D01*
X0192515Y0077079D02*
X0191915Y0077079D01*
X0191915Y0077678D02*
X0192515Y0077678D01*
X0192515Y0078276D02*
X0191915Y0078276D01*
X0191915Y0078875D02*
X0192515Y0078875D01*
X0195011Y0078875D02*
X0241550Y0078875D01*
X0241550Y0079473D02*
X0187550Y0079473D01*
X0187550Y0078875D02*
X0189420Y0078875D01*
X0188994Y0078276D02*
X0187550Y0078276D01*
X0187550Y0077678D02*
X0188950Y0077678D01*
X0188950Y0077079D02*
X0187550Y0077079D01*
X0187550Y0076481D02*
X0188950Y0076481D01*
X0191915Y0074685D02*
X0192515Y0074685D01*
X0192515Y0074087D02*
X0191915Y0074087D01*
X0191915Y0073488D02*
X0192515Y0073488D01*
X0195481Y0076481D02*
X0232906Y0076481D01*
X0233943Y0077079D02*
X0195481Y0077079D01*
X0195481Y0077678D02*
X0234819Y0077678D01*
X0234819Y0078276D02*
X0195437Y0078276D01*
X0187550Y0080072D02*
X0241550Y0080072D01*
X0241550Y0080670D02*
X0187550Y0080670D01*
X0187550Y0081269D02*
X0241550Y0081269D01*
X0241550Y0081868D02*
X0187550Y0081868D01*
X0187550Y0082466D02*
X0197331Y0082466D01*
X0197768Y0082029D02*
X0196433Y0083364D01*
X0196433Y0085251D01*
X0197768Y0086585D01*
X0199655Y0086585D01*
X0200989Y0085251D01*
X0200989Y0083364D01*
X0199655Y0082029D01*
X0197768Y0082029D01*
X0196732Y0083065D02*
X0187550Y0083065D01*
X0187550Y0083663D02*
X0196433Y0083663D01*
X0196433Y0084262D02*
X0187550Y0084262D01*
X0187550Y0084860D02*
X0196433Y0084860D01*
X0196641Y0085459D02*
X0187550Y0085459D01*
X0187550Y0086057D02*
X0197240Y0086057D01*
X0200183Y0086057D02*
X0208244Y0086057D01*
X0208244Y0085459D02*
X0200781Y0085459D01*
X0200989Y0084860D02*
X0208244Y0084860D01*
X0208508Y0084262D02*
X0200989Y0084262D01*
X0200989Y0083663D02*
X0241550Y0083663D01*
X0241550Y0083065D02*
X0200690Y0083065D01*
X0200092Y0082466D02*
X0241550Y0082466D01*
X0241550Y0084262D02*
X0221592Y0084262D01*
X0221855Y0084860D02*
X0241550Y0084860D01*
X0241550Y0085459D02*
X0221855Y0085459D01*
X0221855Y0086057D02*
X0241550Y0086057D01*
X0240994Y0086656D02*
X0221855Y0086656D01*
X0221855Y0087254D02*
X0240396Y0087254D01*
X0239797Y0087853D02*
X0221855Y0087853D01*
X0221855Y0088451D02*
X0239199Y0088451D01*
X0240089Y0091781D02*
X0240199Y0091779D01*
X0240309Y0091773D01*
X0240418Y0091764D01*
X0240527Y0091750D01*
X0240636Y0091733D01*
X0240744Y0091712D01*
X0240851Y0091687D01*
X0240957Y0091659D01*
X0241062Y0091627D01*
X0241166Y0091591D01*
X0241269Y0091552D01*
X0241370Y0091509D01*
X0241470Y0091462D01*
X0241568Y0091412D01*
X0241664Y0091359D01*
X0241758Y0091302D01*
X0241850Y0091242D01*
X0241941Y0091179D01*
X0242028Y0091113D01*
X0242114Y0091044D01*
X0242197Y0090972D01*
X0242277Y0090897D01*
X0242355Y0090819D01*
X0242430Y0090739D01*
X0242502Y0090656D01*
X0242571Y0090570D01*
X0242637Y0090483D01*
X0242700Y0090392D01*
X0242760Y0090300D01*
X0242817Y0090206D01*
X0242870Y0090110D01*
X0242920Y0090012D01*
X0242967Y0089912D01*
X0243010Y0089811D01*
X0243049Y0089708D01*
X0243085Y0089604D01*
X0243117Y0089499D01*
X0243145Y0089393D01*
X0243170Y0089286D01*
X0243191Y0089178D01*
X0243208Y0089069D01*
X0243222Y0088960D01*
X0243231Y0088851D01*
X0243237Y0088741D01*
X0243239Y0088631D01*
X0243239Y0043750D01*
X0241550Y0044760D02*
X0221855Y0044760D01*
X0221855Y0045358D02*
X0241550Y0045358D01*
X0241550Y0045957D02*
X0221855Y0045957D01*
X0221855Y0046555D02*
X0230005Y0046555D01*
X0229330Y0047154D02*
X0221855Y0047154D01*
X0221578Y0047752D02*
X0228961Y0047752D01*
X0233447Y0047154D02*
X0241550Y0047154D01*
X0241550Y0047752D02*
X0233816Y0047752D01*
X0234060Y0048351D02*
X0241550Y0048351D01*
X0241550Y0048949D02*
X0234060Y0048949D01*
X0234001Y0049548D02*
X0241550Y0049548D01*
X0241550Y0050146D02*
X0233753Y0050146D01*
X0233296Y0050745D02*
X0241550Y0050745D01*
X0241550Y0051343D02*
X0232408Y0051343D01*
X0230369Y0051343D02*
X0201289Y0051343D01*
X0201052Y0051107D02*
X0201052Y0051107D01*
X0200178Y0050745D02*
X0229481Y0050745D01*
X0232772Y0046555D02*
X0241550Y0046555D01*
X0241111Y0044161D02*
X0221855Y0044161D01*
X0221855Y0043563D02*
X0240513Y0043563D01*
X0243239Y0043750D02*
X0243237Y0043640D01*
X0243231Y0043530D01*
X0243222Y0043421D01*
X0243208Y0043312D01*
X0243191Y0043203D01*
X0243170Y0043095D01*
X0243145Y0042988D01*
X0243117Y0042882D01*
X0243085Y0042777D01*
X0243049Y0042673D01*
X0243010Y0042570D01*
X0242967Y0042469D01*
X0242920Y0042369D01*
X0242870Y0042271D01*
X0242817Y0042175D01*
X0242760Y0042081D01*
X0242700Y0041989D01*
X0242637Y0041898D01*
X0242571Y0041811D01*
X0242502Y0041725D01*
X0242430Y0041642D01*
X0242355Y0041562D01*
X0242277Y0041484D01*
X0242197Y0041409D01*
X0242114Y0041337D01*
X0242028Y0041268D01*
X0241941Y0041202D01*
X0241850Y0041139D01*
X0241758Y0041079D01*
X0241664Y0041022D01*
X0241568Y0040969D01*
X0241470Y0040919D01*
X0241370Y0040872D01*
X0241269Y0040829D01*
X0241166Y0040790D01*
X0241062Y0040754D01*
X0240957Y0040722D01*
X0240851Y0040694D01*
X0240744Y0040669D01*
X0240636Y0040648D01*
X0240527Y0040631D01*
X0240418Y0040617D01*
X0240309Y0040608D01*
X0240199Y0040602D01*
X0240089Y0040600D01*
X0239941Y0040600D01*
X0191516Y0040600D01*
X0191369Y0040600D01*
X0191368Y0040600D02*
X0191214Y0040602D01*
X0191061Y0040608D01*
X0190907Y0040618D01*
X0190754Y0040631D01*
X0190601Y0040649D01*
X0190449Y0040671D01*
X0190297Y0040696D01*
X0190146Y0040725D01*
X0189996Y0040759D01*
X0189846Y0040796D01*
X0189698Y0040836D01*
X0189551Y0040881D01*
X0189405Y0040929D01*
X0189260Y0040981D01*
X0189116Y0041037D01*
X0188975Y0041097D01*
X0188834Y0041160D01*
X0188695Y0041226D01*
X0188559Y0041296D01*
X0188423Y0041370D01*
X0188290Y0041447D01*
X0188159Y0041527D01*
X0188030Y0041611D01*
X0187903Y0041698D01*
X0187778Y0041788D01*
X0187656Y0041882D01*
X0187536Y0041978D01*
X0187419Y0042078D01*
X0187304Y0042180D01*
X0187192Y0042285D01*
X0201887Y0051942D02*
X0241550Y0051942D01*
X0241550Y0052540D02*
X0202486Y0052540D01*
X0202543Y0052598D02*
X0202543Y0052598D01*
X0203618Y0056132D02*
X0219831Y0056132D01*
X0202517Y0058526D02*
X0195096Y0058526D01*
X0186550Y0065100D02*
X0186548Y0065198D01*
X0186542Y0065296D01*
X0186533Y0065394D01*
X0186519Y0065491D01*
X0186502Y0065588D01*
X0186481Y0065684D01*
X0186456Y0065779D01*
X0186428Y0065873D01*
X0186395Y0065965D01*
X0186360Y0066057D01*
X0186320Y0066147D01*
X0186278Y0066235D01*
X0186231Y0066322D01*
X0186182Y0066406D01*
X0186129Y0066489D01*
X0186073Y0066569D01*
X0186013Y0066648D01*
X0185951Y0066724D01*
X0185886Y0066797D01*
X0185818Y0066868D01*
X0185747Y0066936D01*
X0185674Y0067001D01*
X0185598Y0067063D01*
X0185519Y0067123D01*
X0185439Y0067179D01*
X0185356Y0067232D01*
X0185272Y0067281D01*
X0185185Y0067328D01*
X0185097Y0067370D01*
X0185007Y0067410D01*
X0184915Y0067445D01*
X0184823Y0067478D01*
X0184729Y0067506D01*
X0184634Y0067531D01*
X0184538Y0067552D01*
X0184441Y0067569D01*
X0184344Y0067583D01*
X0184246Y0067592D01*
X0184148Y0067598D01*
X0184050Y0067600D01*
X0069649Y0067600D01*
X0073229Y0069100D02*
X0228550Y0069100D01*
X0230071Y0068102D02*
X0234819Y0068102D01*
X0234819Y0067503D02*
X0234542Y0067503D01*
X0235178Y0068700D02*
X0231504Y0068700D01*
X0231496Y0068692D02*
X0231496Y0068692D01*
X0232103Y0069299D02*
X0241550Y0069299D01*
X0241550Y0069897D02*
X0232701Y0069897D01*
X0233100Y0070496D02*
X0241550Y0070496D01*
X0241550Y0071094D02*
X0233348Y0071094D01*
X0233830Y0071693D02*
X0241550Y0071693D01*
X0241550Y0072291D02*
X0234428Y0072291D01*
X0234450Y0072890D02*
X0241550Y0072890D01*
X0241550Y0073488D02*
X0240780Y0073488D01*
X0240950Y0074087D02*
X0241550Y0074087D01*
X0241550Y0074685D02*
X0240950Y0074685D01*
X0240950Y0075284D02*
X0241550Y0075284D01*
X0241550Y0075882D02*
X0240950Y0075882D01*
X0240950Y0076481D02*
X0241550Y0076481D01*
X0241550Y0077079D02*
X0240950Y0077079D01*
X0240950Y0077678D02*
X0241550Y0077678D01*
X0241550Y0078276D02*
X0240950Y0078276D01*
X0234819Y0074087D02*
X0234250Y0074087D01*
X0234450Y0073488D02*
X0234990Y0073488D01*
X0232550Y0073100D02*
X0232548Y0072974D01*
X0232542Y0072849D01*
X0232532Y0072724D01*
X0232518Y0072599D01*
X0232501Y0072474D01*
X0232479Y0072350D01*
X0232454Y0072227D01*
X0232424Y0072105D01*
X0232391Y0071984D01*
X0232354Y0071864D01*
X0232314Y0071745D01*
X0232269Y0071628D01*
X0232221Y0071511D01*
X0232169Y0071397D01*
X0232114Y0071284D01*
X0232055Y0071173D01*
X0231993Y0071064D01*
X0231927Y0070957D01*
X0231858Y0070852D01*
X0231786Y0070749D01*
X0231711Y0070648D01*
X0231632Y0070550D01*
X0231550Y0070455D01*
X0231466Y0070362D01*
X0231378Y0070272D01*
X0231288Y0070184D01*
X0231195Y0070100D01*
X0231100Y0070018D01*
X0231002Y0069939D01*
X0230901Y0069864D01*
X0230798Y0069792D01*
X0230693Y0069723D01*
X0230586Y0069657D01*
X0230477Y0069595D01*
X0230366Y0069536D01*
X0230253Y0069481D01*
X0230139Y0069429D01*
X0230022Y0069381D01*
X0229905Y0069336D01*
X0229786Y0069296D01*
X0229666Y0069259D01*
X0229545Y0069226D01*
X0229423Y0069196D01*
X0229300Y0069171D01*
X0229176Y0069149D01*
X0229051Y0069132D01*
X0228926Y0069118D01*
X0228801Y0069108D01*
X0228676Y0069102D01*
X0228550Y0069100D01*
X0233750Y0065900D02*
X0237785Y0065900D01*
X0237885Y0066000D01*
X0240950Y0065708D02*
X0241550Y0065708D01*
X0241550Y0066306D02*
X0240950Y0066306D01*
X0240950Y0066905D02*
X0241550Y0066905D01*
X0241550Y0067503D02*
X0240950Y0067503D01*
X0240950Y0068102D02*
X0241550Y0068102D01*
X0241550Y0068700D02*
X0240591Y0068700D01*
X0240950Y0065109D02*
X0241550Y0065109D01*
X0241550Y0064511D02*
X0240950Y0064511D01*
X0240950Y0063912D02*
X0241550Y0063912D01*
X0241550Y0063314D02*
X0240605Y0063314D01*
X0234819Y0064511D02*
X0234756Y0064511D01*
X0240950Y0055533D02*
X0241550Y0055533D01*
X0241550Y0054934D02*
X0240950Y0054934D01*
X0240950Y0054336D02*
X0241550Y0054336D01*
X0241550Y0053737D02*
X0240950Y0053737D01*
X0240430Y0053139D02*
X0241550Y0053139D01*
X0175750Y0071200D02*
X0159650Y0071200D01*
X0159550Y0071100D01*
X0149250Y0071100D01*
X0139150Y0071100D01*
X0128750Y0071100D01*
X0118250Y0071100D01*
X0107750Y0071100D01*
X0096750Y0071100D01*
X0087250Y0071100D01*
X0077250Y0071100D01*
X0077248Y0071117D01*
X0077244Y0071134D01*
X0077237Y0071150D01*
X0077227Y0071164D01*
X0077214Y0071177D01*
X0077200Y0071187D01*
X0077184Y0071194D01*
X0077167Y0071198D01*
X0077150Y0071200D01*
X0074050Y0071200D01*
X0073972Y0071202D01*
X0073895Y0071208D01*
X0073818Y0071217D01*
X0073742Y0071230D01*
X0073666Y0071247D01*
X0073591Y0071268D01*
X0073517Y0071292D01*
X0073445Y0071320D01*
X0073374Y0071352D01*
X0073305Y0071387D01*
X0073237Y0071425D01*
X0073172Y0071466D01*
X0073108Y0071511D01*
X0073047Y0071559D01*
X0072988Y0071610D01*
X0072932Y0071663D01*
X0072879Y0071719D01*
X0072828Y0071778D01*
X0072780Y0071839D01*
X0072735Y0071903D01*
X0072694Y0071968D01*
X0072656Y0072036D01*
X0072621Y0072105D01*
X0072589Y0072176D01*
X0072561Y0072248D01*
X0072537Y0072322D01*
X0072516Y0072397D01*
X0072499Y0072473D01*
X0072486Y0072549D01*
X0072477Y0072626D01*
X0072471Y0072703D01*
X0072469Y0072781D01*
X0072469Y0074860D01*
X0072391Y0074939D01*
X0067390Y0074939D02*
X0067392Y0074789D01*
X0067398Y0074638D01*
X0067407Y0074488D01*
X0067421Y0074339D01*
X0067438Y0074189D01*
X0067460Y0074040D01*
X0067485Y0073892D01*
X0067513Y0073745D01*
X0067546Y0073598D01*
X0067583Y0073452D01*
X0067623Y0073307D01*
X0067667Y0073163D01*
X0067714Y0073021D01*
X0067765Y0072879D01*
X0067820Y0072739D01*
X0067879Y0072601D01*
X0067941Y0072464D01*
X0068006Y0072328D01*
X0068075Y0072195D01*
X0068147Y0072063D01*
X0068223Y0071933D01*
X0068302Y0071805D01*
X0068385Y0071679D01*
X0068470Y0071556D01*
X0068559Y0071434D01*
X0068651Y0071315D01*
X0068745Y0071199D01*
X0068843Y0071084D01*
X0068944Y0070973D01*
X0069047Y0070864D01*
X0069154Y0070757D01*
X0069263Y0070654D01*
X0069374Y0070553D01*
X0069489Y0070455D01*
X0069605Y0070361D01*
X0069724Y0070269D01*
X0069846Y0070180D01*
X0069969Y0070095D01*
X0070095Y0070012D01*
X0070223Y0069933D01*
X0070353Y0069857D01*
X0070485Y0069785D01*
X0070618Y0069716D01*
X0070754Y0069651D01*
X0070891Y0069589D01*
X0071029Y0069530D01*
X0071169Y0069475D01*
X0071311Y0069424D01*
X0071453Y0069377D01*
X0071597Y0069333D01*
X0071742Y0069293D01*
X0071888Y0069256D01*
X0072035Y0069223D01*
X0072182Y0069195D01*
X0072330Y0069170D01*
X0072479Y0069148D01*
X0072629Y0069131D01*
X0072778Y0069117D01*
X0072928Y0069108D01*
X0073079Y0069102D01*
X0073229Y0069100D01*
X0074735Y0072883D02*
X0167262Y0072883D01*
X0167409Y0072883D01*
X0171585Y0074613D02*
X0187094Y0090051D01*
X0187901Y0088451D02*
X0208244Y0088451D01*
X0208244Y0087853D02*
X0187550Y0087853D01*
X0187550Y0087254D02*
X0208244Y0087254D01*
X0208244Y0086656D02*
X0187550Y0086656D01*
X0187095Y0090051D02*
X0187202Y0090155D01*
X0187311Y0090257D01*
X0187424Y0090356D01*
X0187538Y0090452D01*
X0187656Y0090545D01*
X0187775Y0090635D01*
X0187897Y0090722D01*
X0188021Y0090806D01*
X0188147Y0090886D01*
X0188274Y0090964D01*
X0188404Y0091038D01*
X0188536Y0091109D01*
X0188670Y0091177D01*
X0188805Y0091241D01*
X0188941Y0091301D01*
X0189080Y0091359D01*
X0189219Y0091412D01*
X0189360Y0091463D01*
X0189502Y0091509D01*
X0189646Y0091552D01*
X0189790Y0091592D01*
X0189935Y0091627D01*
X0190081Y0091659D01*
X0190228Y0091687D01*
X0190376Y0091712D01*
X0190524Y0091733D01*
X0190673Y0091750D01*
X0190822Y0091763D01*
X0190971Y0091772D01*
X0191120Y0091778D01*
X0191270Y0091780D01*
X0191270Y0091781D02*
X0191418Y0091781D01*
X0239941Y0091781D01*
X0240089Y0091781D01*
X0171584Y0074614D02*
X0171477Y0074509D01*
X0171368Y0074407D01*
X0171255Y0074309D01*
X0171141Y0074213D01*
X0171023Y0074119D01*
X0170904Y0074029D01*
X0170782Y0073942D01*
X0170658Y0073858D01*
X0170533Y0073778D01*
X0170405Y0073700D01*
X0170275Y0073626D01*
X0170143Y0073555D01*
X0170010Y0073487D01*
X0169874Y0073423D01*
X0169738Y0073363D01*
X0169599Y0073305D01*
X0169460Y0073252D01*
X0169319Y0073201D01*
X0169177Y0073155D01*
X0169033Y0073112D01*
X0168889Y0073073D01*
X0168744Y0073037D01*
X0168598Y0073005D01*
X0168451Y0072977D01*
X0168303Y0072952D01*
X0168155Y0072931D01*
X0168006Y0072914D01*
X0167857Y0072901D01*
X0167708Y0072892D01*
X0167559Y0072886D01*
X0167409Y0072884D01*
X0167410Y0059498D02*
X0167564Y0059496D01*
X0167717Y0059490D01*
X0167871Y0059480D01*
X0168024Y0059467D01*
X0168177Y0059449D01*
X0168329Y0059427D01*
X0168481Y0059402D01*
X0168632Y0059373D01*
X0168782Y0059339D01*
X0168932Y0059302D01*
X0169080Y0059262D01*
X0169227Y0059217D01*
X0169373Y0059169D01*
X0169518Y0059117D01*
X0169662Y0059061D01*
X0169803Y0059001D01*
X0169944Y0058938D01*
X0170083Y0058872D01*
X0170219Y0058802D01*
X0170355Y0058728D01*
X0170488Y0058651D01*
X0170619Y0058571D01*
X0170748Y0058487D01*
X0170875Y0058400D01*
X0171000Y0058310D01*
X0171122Y0058216D01*
X0171242Y0058120D01*
X0171359Y0058020D01*
X0171474Y0057918D01*
X0171586Y0057813D01*
X0074735Y0072883D02*
X0074735Y0076427D01*
X0074587Y0076427D01*
X0055198Y0076427D01*
X0055050Y0076427D01*
X0055050Y0055954D01*
X0069649Y0067600D02*
X0069474Y0067602D01*
X0069298Y0067608D01*
X0069123Y0067619D01*
X0068949Y0067634D01*
X0068774Y0067653D01*
X0068600Y0067676D01*
X0068427Y0067704D01*
X0068255Y0067735D01*
X0068083Y0067771D01*
X0067912Y0067811D01*
X0067742Y0067855D01*
X0067574Y0067903D01*
X0067406Y0067955D01*
X0067240Y0068011D01*
X0067075Y0068072D01*
X0066912Y0068136D01*
X0066750Y0068204D01*
X0066590Y0068276D01*
X0066432Y0068352D01*
X0066276Y0068431D01*
X0066122Y0068515D01*
X0065969Y0068602D01*
X0065819Y0068693D01*
X0065672Y0068787D01*
X0065526Y0068885D01*
X0065383Y0068986D01*
X0065242Y0069091D01*
X0065104Y0069199D01*
X0064969Y0069311D01*
X0064836Y0069425D01*
X0064706Y0069543D01*
X0064579Y0069664D01*
X0064455Y0069788D01*
X0064334Y0069915D01*
X0064216Y0070045D01*
X0064102Y0070178D01*
X0063990Y0070313D01*
X0063882Y0070451D01*
X0063777Y0070592D01*
X0063676Y0070735D01*
X0063578Y0070881D01*
X0063484Y0071028D01*
X0063393Y0071178D01*
X0063306Y0071331D01*
X0063222Y0071485D01*
X0063143Y0071641D01*
X0063067Y0071799D01*
X0062995Y0071959D01*
X0062927Y0072121D01*
X0062863Y0072284D01*
X0062802Y0072449D01*
X0062746Y0072615D01*
X0062694Y0072783D01*
X0062646Y0072951D01*
X0062602Y0073121D01*
X0062562Y0073292D01*
X0062526Y0073464D01*
X0062495Y0073636D01*
X0062467Y0073809D01*
X0062444Y0073983D01*
X0062425Y0074158D01*
X0062410Y0074332D01*
X0062399Y0074507D01*
X0062393Y0074683D01*
X0062391Y0074858D01*
D11*
X0192215Y0076000D03*
X0192215Y0066000D03*
X0192215Y0056000D03*
X0237885Y0056000D03*
X0237885Y0066000D03*
X0237885Y0076000D03*
D12*
X0215050Y0086866D03*
X0215050Y0045134D03*
D13*
X0229617Y0048874D02*
X0229619Y0048958D01*
X0229625Y0049041D01*
X0229635Y0049124D01*
X0229649Y0049207D01*
X0229666Y0049289D01*
X0229688Y0049370D01*
X0229713Y0049449D01*
X0229742Y0049528D01*
X0229775Y0049605D01*
X0229811Y0049680D01*
X0229851Y0049754D01*
X0229894Y0049826D01*
X0229941Y0049895D01*
X0229991Y0049962D01*
X0230044Y0050027D01*
X0230100Y0050089D01*
X0230158Y0050149D01*
X0230220Y0050206D01*
X0230284Y0050259D01*
X0230351Y0050310D01*
X0230420Y0050357D01*
X0230491Y0050402D01*
X0230564Y0050442D01*
X0230639Y0050479D01*
X0230716Y0050513D01*
X0230794Y0050543D01*
X0230873Y0050569D01*
X0230954Y0050592D01*
X0231036Y0050610D01*
X0231118Y0050625D01*
X0231201Y0050636D01*
X0231284Y0050643D01*
X0231368Y0050646D01*
X0231452Y0050645D01*
X0231535Y0050640D01*
X0231619Y0050631D01*
X0231701Y0050618D01*
X0231783Y0050602D01*
X0231864Y0050581D01*
X0231945Y0050557D01*
X0232023Y0050529D01*
X0232101Y0050497D01*
X0232177Y0050461D01*
X0232251Y0050422D01*
X0232323Y0050380D01*
X0232393Y0050334D01*
X0232461Y0050285D01*
X0232526Y0050233D01*
X0232589Y0050178D01*
X0232649Y0050120D01*
X0232707Y0050059D01*
X0232761Y0049995D01*
X0232813Y0049929D01*
X0232861Y0049861D01*
X0232906Y0049790D01*
X0232947Y0049717D01*
X0232986Y0049643D01*
X0233020Y0049567D01*
X0233051Y0049489D01*
X0233078Y0049410D01*
X0233102Y0049329D01*
X0233121Y0049248D01*
X0233137Y0049166D01*
X0233149Y0049083D01*
X0233157Y0048999D01*
X0233161Y0048916D01*
X0233161Y0048832D01*
X0233157Y0048749D01*
X0233149Y0048665D01*
X0233137Y0048582D01*
X0233121Y0048500D01*
X0233102Y0048419D01*
X0233078Y0048338D01*
X0233051Y0048259D01*
X0233020Y0048181D01*
X0232986Y0048105D01*
X0232947Y0048031D01*
X0232906Y0047958D01*
X0232861Y0047887D01*
X0232813Y0047819D01*
X0232761Y0047753D01*
X0232707Y0047689D01*
X0232649Y0047628D01*
X0232589Y0047570D01*
X0232526Y0047515D01*
X0232461Y0047463D01*
X0232393Y0047414D01*
X0232323Y0047368D01*
X0232251Y0047326D01*
X0232177Y0047287D01*
X0232101Y0047251D01*
X0232023Y0047219D01*
X0231945Y0047191D01*
X0231864Y0047167D01*
X0231783Y0047146D01*
X0231701Y0047130D01*
X0231619Y0047117D01*
X0231535Y0047108D01*
X0231452Y0047103D01*
X0231368Y0047102D01*
X0231284Y0047105D01*
X0231201Y0047112D01*
X0231118Y0047123D01*
X0231036Y0047138D01*
X0230954Y0047156D01*
X0230873Y0047179D01*
X0230794Y0047205D01*
X0230716Y0047235D01*
X0230639Y0047269D01*
X0230564Y0047306D01*
X0230491Y0047346D01*
X0230420Y0047391D01*
X0230351Y0047438D01*
X0230284Y0047489D01*
X0230220Y0047542D01*
X0230158Y0047599D01*
X0230100Y0047659D01*
X0230044Y0047721D01*
X0229991Y0047786D01*
X0229941Y0047853D01*
X0229894Y0047922D01*
X0229851Y0047994D01*
X0229811Y0048068D01*
X0229775Y0048143D01*
X0229742Y0048220D01*
X0229713Y0048299D01*
X0229688Y0048378D01*
X0229666Y0048459D01*
X0229649Y0048541D01*
X0229635Y0048624D01*
X0229625Y0048707D01*
X0229619Y0048790D01*
X0229617Y0048874D01*
X0197333Y0084307D02*
X0197335Y0084381D01*
X0197341Y0084455D01*
X0197351Y0084528D01*
X0197365Y0084601D01*
X0197382Y0084673D01*
X0197404Y0084743D01*
X0197429Y0084813D01*
X0197458Y0084881D01*
X0197491Y0084947D01*
X0197527Y0085012D01*
X0197567Y0085074D01*
X0197609Y0085135D01*
X0197655Y0085193D01*
X0197704Y0085248D01*
X0197756Y0085301D01*
X0197811Y0085351D01*
X0197868Y0085397D01*
X0197928Y0085441D01*
X0197990Y0085481D01*
X0198054Y0085518D01*
X0198120Y0085552D01*
X0198188Y0085582D01*
X0198257Y0085608D01*
X0198328Y0085631D01*
X0198399Y0085649D01*
X0198472Y0085664D01*
X0198545Y0085675D01*
X0198619Y0085682D01*
X0198693Y0085685D01*
X0198766Y0085684D01*
X0198840Y0085679D01*
X0198914Y0085670D01*
X0198987Y0085657D01*
X0199059Y0085640D01*
X0199130Y0085620D01*
X0199200Y0085595D01*
X0199268Y0085567D01*
X0199335Y0085536D01*
X0199400Y0085500D01*
X0199463Y0085462D01*
X0199524Y0085420D01*
X0199583Y0085374D01*
X0199639Y0085326D01*
X0199692Y0085275D01*
X0199742Y0085221D01*
X0199790Y0085164D01*
X0199834Y0085105D01*
X0199876Y0085043D01*
X0199914Y0084980D01*
X0199948Y0084914D01*
X0199979Y0084847D01*
X0200006Y0084778D01*
X0200029Y0084708D01*
X0200049Y0084637D01*
X0200065Y0084564D01*
X0200077Y0084491D01*
X0200085Y0084418D01*
X0200089Y0084344D01*
X0200089Y0084270D01*
X0200085Y0084196D01*
X0200077Y0084123D01*
X0200065Y0084050D01*
X0200049Y0083977D01*
X0200029Y0083906D01*
X0200006Y0083836D01*
X0199979Y0083767D01*
X0199948Y0083700D01*
X0199914Y0083634D01*
X0199876Y0083571D01*
X0199834Y0083509D01*
X0199790Y0083450D01*
X0199742Y0083393D01*
X0199692Y0083339D01*
X0199639Y0083288D01*
X0199583Y0083240D01*
X0199524Y0083194D01*
X0199463Y0083152D01*
X0199400Y0083114D01*
X0199335Y0083078D01*
X0199268Y0083047D01*
X0199200Y0083019D01*
X0199130Y0082994D01*
X0199059Y0082974D01*
X0198987Y0082957D01*
X0198914Y0082944D01*
X0198840Y0082935D01*
X0198766Y0082930D01*
X0198693Y0082929D01*
X0198619Y0082932D01*
X0198545Y0082939D01*
X0198472Y0082950D01*
X0198399Y0082965D01*
X0198328Y0082983D01*
X0198257Y0083006D01*
X0198188Y0083032D01*
X0198120Y0083062D01*
X0198054Y0083096D01*
X0197990Y0083133D01*
X0197928Y0083173D01*
X0197868Y0083217D01*
X0197811Y0083263D01*
X0197756Y0083313D01*
X0197704Y0083366D01*
X0197655Y0083421D01*
X0197609Y0083479D01*
X0197567Y0083540D01*
X0197527Y0083602D01*
X0197491Y0083667D01*
X0197458Y0083733D01*
X0197429Y0083801D01*
X0197404Y0083871D01*
X0197382Y0083941D01*
X0197365Y0084013D01*
X0197351Y0084086D01*
X0197341Y0084159D01*
X0197335Y0084233D01*
X0197333Y0084307D01*
D14*
X0072384Y0076533D03*
X0067384Y0076533D03*
X0062384Y0076533D03*
X0057384Y0076533D03*
X0057384Y0055667D03*
X0062384Y0055667D03*
X0067384Y0055667D03*
X0072384Y0055667D03*
D15*
X0072430Y0057261D03*
X0067391Y0057261D03*
X0062391Y0057261D03*
X0057391Y0057261D03*
X0057391Y0074939D03*
X0062391Y0074858D03*
X0067391Y0074939D03*
X0072391Y0074939D03*
D16*
X0073250Y0071700D03*
X0077250Y0071100D03*
X0087250Y0071100D03*
X0096750Y0071100D03*
X0107750Y0071100D03*
X0118250Y0071100D03*
X0128750Y0071100D03*
X0139150Y0071100D03*
X0149250Y0071100D03*
X0159550Y0071100D03*
X0175750Y0071200D03*
X0188250Y0075200D03*
X0195750Y0075700D03*
X0203250Y0074500D03*
X0207250Y0079200D03*
X0215150Y0079400D03*
X0221250Y0079200D03*
X0230250Y0079200D03*
X0218850Y0074700D03*
X0212950Y0074600D03*
X0192250Y0079200D03*
X0187750Y0081700D03*
X0198750Y0066200D03*
X0207250Y0066200D03*
X0218250Y0065700D03*
X0223550Y0066200D03*
X0233750Y0065900D03*
X0231250Y0062200D03*
X0215250Y0055300D03*
X0207250Y0055200D03*
X0199750Y0057200D03*
X0222750Y0054200D03*
X0057750Y0063700D03*
X0057750Y0067200D03*
D17*
X0057750Y0063700D01*
X0057712Y0063698D01*
X0057675Y0063692D01*
X0057639Y0063682D01*
X0057604Y0063669D01*
X0057571Y0063652D01*
X0057539Y0063631D01*
X0057510Y0063608D01*
X0057483Y0063581D01*
X0057460Y0063552D01*
X0057439Y0063521D01*
X0057422Y0063487D01*
X0057409Y0063452D01*
X0057399Y0063416D01*
X0057393Y0063379D01*
X0057391Y0063341D01*
X0057391Y0057261D01*
X0057388Y0057260D01*
X0057386Y0057258D01*
X0057385Y0057255D01*
X0057384Y0057255D02*
X0057384Y0055667D01*
X0062384Y0055667D02*
X0062384Y0057255D01*
X0062385Y0057255D02*
X0062386Y0057258D01*
X0062388Y0057260D01*
X0062391Y0057261D01*
X0062391Y0058941D01*
X0067391Y0060261D02*
X0067391Y0057261D01*
X0067388Y0057260D01*
X0067386Y0057258D01*
X0067385Y0057255D01*
X0067384Y0057255D02*
X0067384Y0055667D01*
X0072384Y0055667D02*
X0072384Y0057216D01*
X0072386Y0057228D01*
X0072390Y0057239D01*
X0072397Y0057249D01*
X0072407Y0057256D01*
X0072418Y0057260D01*
X0072430Y0057262D01*
X0072430Y0057261D02*
X0072430Y0058261D01*
X0072396Y0058224D01*
X0072364Y0058185D01*
X0072335Y0058143D01*
X0072309Y0058100D01*
X0072287Y0058055D01*
X0072268Y0058008D01*
X0072252Y0057960D01*
X0072239Y0057911D01*
X0072230Y0057862D01*
X0072225Y0057811D01*
X0072223Y0057761D01*
X0072225Y0057711D01*
X0072230Y0057660D01*
X0072239Y0057611D01*
X0072252Y0057562D01*
X0072268Y0057514D01*
X0072287Y0057467D01*
X0072309Y0057422D01*
X0072335Y0057379D01*
X0072364Y0057337D01*
X0072396Y0057298D01*
X0072430Y0057261D01*
X0069550Y0066100D02*
X0069377Y0066098D01*
X0069204Y0066092D01*
X0069031Y0066081D01*
X0068859Y0066067D01*
X0068687Y0066048D01*
X0068516Y0066025D01*
X0068345Y0065998D01*
X0068175Y0065967D01*
X0068005Y0065931D01*
X0067837Y0065892D01*
X0067669Y0065849D01*
X0067503Y0065801D01*
X0067338Y0065750D01*
X0067174Y0065694D01*
X0067011Y0065635D01*
X0066850Y0065571D01*
X0066691Y0065504D01*
X0066533Y0065433D01*
X0066377Y0065359D01*
X0066223Y0065280D01*
X0066071Y0065198D01*
X0065921Y0065112D01*
X0065773Y0065022D01*
X0065627Y0064929D01*
X0065483Y0064833D01*
X0065342Y0064733D01*
X0065203Y0064629D01*
X0065067Y0064523D01*
X0064934Y0064413D01*
X0064803Y0064300D01*
X0064675Y0064183D01*
X0064549Y0064064D01*
X0064427Y0063942D01*
X0064308Y0063816D01*
X0064191Y0063688D01*
X0064078Y0063557D01*
X0063968Y0063424D01*
X0063862Y0063288D01*
X0063758Y0063149D01*
X0063658Y0063008D01*
X0063562Y0062864D01*
X0063469Y0062718D01*
X0063379Y0062570D01*
X0063293Y0062420D01*
X0063211Y0062268D01*
X0063132Y0062114D01*
X0063058Y0061958D01*
X0062987Y0061800D01*
X0062920Y0061641D01*
X0062856Y0061480D01*
X0062797Y0061317D01*
X0062741Y0061153D01*
X0062690Y0060988D01*
X0062642Y0060822D01*
X0062599Y0060654D01*
X0062560Y0060486D01*
X0062524Y0060316D01*
X0062493Y0060146D01*
X0062466Y0059975D01*
X0062443Y0059804D01*
X0062424Y0059632D01*
X0062410Y0059460D01*
X0062399Y0059287D01*
X0062393Y0059114D01*
X0062391Y0058941D01*
X0067390Y0060261D02*
X0067392Y0060392D01*
X0067398Y0060523D01*
X0067408Y0060654D01*
X0067422Y0060784D01*
X0067439Y0060914D01*
X0067461Y0061043D01*
X0067487Y0061172D01*
X0067516Y0061299D01*
X0067549Y0061426D01*
X0067586Y0061552D01*
X0067627Y0061676D01*
X0067672Y0061800D01*
X0067720Y0061921D01*
X0067772Y0062042D01*
X0067828Y0062160D01*
X0067887Y0062277D01*
X0067950Y0062393D01*
X0068016Y0062506D01*
X0068085Y0062617D01*
X0068158Y0062726D01*
X0068234Y0062833D01*
X0068313Y0062937D01*
X0068396Y0063039D01*
X0068481Y0063138D01*
X0068570Y0063235D01*
X0068661Y0063329D01*
X0068755Y0063420D01*
X0068852Y0063509D01*
X0068951Y0063594D01*
X0069053Y0063677D01*
X0069157Y0063756D01*
X0069264Y0063832D01*
X0069373Y0063905D01*
X0069484Y0063974D01*
X0069597Y0064040D01*
X0069713Y0064103D01*
X0069830Y0064162D01*
X0069948Y0064218D01*
X0070069Y0064270D01*
X0070190Y0064318D01*
X0070314Y0064363D01*
X0070438Y0064404D01*
X0070564Y0064441D01*
X0070691Y0064474D01*
X0070818Y0064503D01*
X0070947Y0064529D01*
X0071076Y0064551D01*
X0071206Y0064568D01*
X0071336Y0064582D01*
X0071467Y0064592D01*
X0071598Y0064598D01*
X0071729Y0064600D01*
X0178050Y0064600D01*
X0175050Y0063100D02*
X0077269Y0063100D01*
X0069550Y0066100D02*
X0181550Y0066100D01*
X0181648Y0066098D01*
X0181746Y0066092D01*
X0181844Y0066083D01*
X0181941Y0066069D01*
X0182038Y0066052D01*
X0182134Y0066031D01*
X0182229Y0066006D01*
X0182323Y0065978D01*
X0182415Y0065945D01*
X0182507Y0065910D01*
X0182597Y0065870D01*
X0182685Y0065828D01*
X0182772Y0065781D01*
X0182856Y0065732D01*
X0182939Y0065679D01*
X0183019Y0065623D01*
X0183098Y0065563D01*
X0183174Y0065501D01*
X0183247Y0065436D01*
X0183318Y0065368D01*
X0183386Y0065297D01*
X0183451Y0065224D01*
X0183513Y0065148D01*
X0183573Y0065069D01*
X0183629Y0064989D01*
X0183682Y0064906D01*
X0183731Y0064822D01*
X0183778Y0064735D01*
X0183820Y0064647D01*
X0183860Y0064557D01*
X0183895Y0064465D01*
X0183928Y0064373D01*
X0183956Y0064279D01*
X0183981Y0064184D01*
X0184002Y0064088D01*
X0184019Y0063991D01*
X0184033Y0063894D01*
X0184042Y0063796D01*
X0184048Y0063698D01*
X0184050Y0063600D01*
X0184052Y0063524D01*
X0184058Y0063448D01*
X0184067Y0063373D01*
X0184081Y0063298D01*
X0184098Y0063224D01*
X0184119Y0063151D01*
X0184143Y0063079D01*
X0184172Y0063008D01*
X0184203Y0062939D01*
X0184238Y0062872D01*
X0184277Y0062807D01*
X0184319Y0062743D01*
X0184364Y0062682D01*
X0184412Y0062623D01*
X0184463Y0062567D01*
X0184517Y0062513D01*
X0184573Y0062462D01*
X0184632Y0062414D01*
X0184693Y0062369D01*
X0184757Y0062327D01*
X0184822Y0062288D01*
X0184889Y0062253D01*
X0184958Y0062222D01*
X0185029Y0062193D01*
X0185101Y0062169D01*
X0185174Y0062148D01*
X0185248Y0062131D01*
X0185323Y0062117D01*
X0185398Y0062108D01*
X0185474Y0062102D01*
X0185550Y0062100D01*
X0226050Y0062100D01*
X0224550Y0060100D02*
X0182550Y0060100D01*
X0182474Y0060102D01*
X0182398Y0060108D01*
X0182323Y0060117D01*
X0182248Y0060131D01*
X0182174Y0060148D01*
X0182101Y0060169D01*
X0182029Y0060193D01*
X0181958Y0060222D01*
X0181889Y0060253D01*
X0181822Y0060288D01*
X0181757Y0060327D01*
X0181693Y0060369D01*
X0181632Y0060414D01*
X0181573Y0060462D01*
X0181517Y0060513D01*
X0181463Y0060567D01*
X0181412Y0060623D01*
X0181364Y0060682D01*
X0181319Y0060743D01*
X0181277Y0060807D01*
X0181238Y0060872D01*
X0181203Y0060939D01*
X0181172Y0061008D01*
X0181143Y0061079D01*
X0181119Y0061151D01*
X0181098Y0061224D01*
X0181081Y0061298D01*
X0181067Y0061373D01*
X0181058Y0061448D01*
X0181052Y0061524D01*
X0181050Y0061600D01*
X0181048Y0061707D01*
X0181042Y0061814D01*
X0181033Y0061921D01*
X0181019Y0062027D01*
X0181002Y0062133D01*
X0180981Y0062238D01*
X0180957Y0062342D01*
X0180928Y0062445D01*
X0180896Y0062547D01*
X0180861Y0062648D01*
X0180822Y0062748D01*
X0180779Y0062846D01*
X0180733Y0062943D01*
X0180683Y0063038D01*
X0180630Y0063131D01*
X0180574Y0063222D01*
X0180514Y0063311D01*
X0180452Y0063398D01*
X0180386Y0063482D01*
X0180317Y0063565D01*
X0180246Y0063644D01*
X0180171Y0063721D01*
X0180094Y0063796D01*
X0180015Y0063867D01*
X0179932Y0063936D01*
X0179848Y0064002D01*
X0179761Y0064064D01*
X0179672Y0064124D01*
X0179581Y0064180D01*
X0179488Y0064233D01*
X0179393Y0064283D01*
X0179296Y0064329D01*
X0179198Y0064372D01*
X0179098Y0064411D01*
X0178997Y0064446D01*
X0178895Y0064478D01*
X0178792Y0064507D01*
X0178688Y0064531D01*
X0178583Y0064552D01*
X0178477Y0064569D01*
X0178371Y0064583D01*
X0178264Y0064592D01*
X0178157Y0064598D01*
X0178050Y0064600D01*
X0175050Y0063100D02*
X0175190Y0063098D01*
X0175330Y0063092D01*
X0175470Y0063082D01*
X0175610Y0063069D01*
X0175749Y0063051D01*
X0175888Y0063029D01*
X0176025Y0063004D01*
X0176163Y0062975D01*
X0176299Y0062942D01*
X0176434Y0062905D01*
X0176568Y0062864D01*
X0176701Y0062819D01*
X0176833Y0062771D01*
X0176963Y0062719D01*
X0177092Y0062664D01*
X0177219Y0062605D01*
X0177345Y0062542D01*
X0177469Y0062476D01*
X0177590Y0062407D01*
X0177710Y0062334D01*
X0177828Y0062257D01*
X0177943Y0062178D01*
X0178057Y0062095D01*
X0178167Y0062009D01*
X0178276Y0061920D01*
X0178382Y0061828D01*
X0178485Y0061733D01*
X0178586Y0061636D01*
X0178683Y0061535D01*
X0178778Y0061432D01*
X0178870Y0061326D01*
X0178959Y0061217D01*
X0179045Y0061107D01*
X0179128Y0060993D01*
X0179207Y0060878D01*
X0179284Y0060760D01*
X0179357Y0060640D01*
X0179426Y0060519D01*
X0179492Y0060395D01*
X0179555Y0060269D01*
X0179614Y0060142D01*
X0179669Y0060013D01*
X0179721Y0059883D01*
X0179769Y0059751D01*
X0179814Y0059618D01*
X0179855Y0059484D01*
X0179892Y0059349D01*
X0179925Y0059213D01*
X0179954Y0059075D01*
X0179979Y0058938D01*
X0180001Y0058799D01*
X0180019Y0058660D01*
X0180032Y0058520D01*
X0180042Y0058380D01*
X0180048Y0058240D01*
X0180050Y0058100D01*
X0180052Y0057940D01*
X0180058Y0057781D01*
X0180068Y0057622D01*
X0180081Y0057463D01*
X0180099Y0057304D01*
X0180120Y0057146D01*
X0180146Y0056989D01*
X0180175Y0056832D01*
X0180208Y0056676D01*
X0180245Y0056521D01*
X0180285Y0056366D01*
X0180330Y0056213D01*
X0180378Y0056061D01*
X0180430Y0055910D01*
X0180486Y0055761D01*
X0180545Y0055613D01*
X0180608Y0055466D01*
X0180674Y0055321D01*
X0180744Y0055178D01*
X0180818Y0055036D01*
X0180894Y0054896D01*
X0180975Y0054758D01*
X0181058Y0054623D01*
X0181145Y0054489D01*
X0181236Y0054357D01*
X0181329Y0054228D01*
X0181426Y0054101D01*
X0181525Y0053976D01*
X0181628Y0053854D01*
X0181734Y0053735D01*
X0181842Y0053618D01*
X0181954Y0053504D01*
X0182068Y0053392D01*
X0182185Y0053284D01*
X0182304Y0053178D01*
X0182426Y0053075D01*
X0182551Y0052976D01*
X0182678Y0052879D01*
X0182807Y0052786D01*
X0182939Y0052695D01*
X0183073Y0052608D01*
X0183208Y0052525D01*
X0183346Y0052444D01*
X0183486Y0052368D01*
X0183628Y0052294D01*
X0183771Y0052224D01*
X0183916Y0052158D01*
X0184063Y0052095D01*
X0184211Y0052036D01*
X0184360Y0051980D01*
X0184511Y0051928D01*
X0184663Y0051880D01*
X0184816Y0051835D01*
X0184971Y0051795D01*
X0185126Y0051758D01*
X0185282Y0051725D01*
X0185439Y0051696D01*
X0185596Y0051670D01*
X0185754Y0051649D01*
X0185913Y0051631D01*
X0186072Y0051618D01*
X0186231Y0051608D01*
X0186390Y0051602D01*
X0186550Y0051600D01*
X0198050Y0051600D01*
X0198176Y0051602D01*
X0198301Y0051608D01*
X0198426Y0051618D01*
X0198551Y0051632D01*
X0198676Y0051649D01*
X0198800Y0051671D01*
X0198923Y0051696D01*
X0199045Y0051726D01*
X0199166Y0051759D01*
X0199286Y0051796D01*
X0199405Y0051836D01*
X0199522Y0051881D01*
X0199639Y0051929D01*
X0199753Y0051981D01*
X0199866Y0052036D01*
X0199977Y0052095D01*
X0200086Y0052157D01*
X0200193Y0052223D01*
X0200298Y0052292D01*
X0200401Y0052364D01*
X0200502Y0052439D01*
X0200600Y0052518D01*
X0200695Y0052600D01*
X0200788Y0052684D01*
X0200878Y0052772D01*
X0200966Y0052862D01*
X0201050Y0052955D01*
X0201132Y0053050D01*
X0201211Y0053148D01*
X0201286Y0053249D01*
X0201358Y0053352D01*
X0201427Y0053457D01*
X0201493Y0053564D01*
X0201555Y0053673D01*
X0201614Y0053784D01*
X0201669Y0053897D01*
X0201721Y0054011D01*
X0201769Y0054128D01*
X0201814Y0054245D01*
X0201854Y0054364D01*
X0201891Y0054484D01*
X0201924Y0054605D01*
X0201954Y0054727D01*
X0201979Y0054850D01*
X0202001Y0054974D01*
X0202018Y0055099D01*
X0202032Y0055224D01*
X0202042Y0055349D01*
X0202048Y0055474D01*
X0202050Y0055600D01*
X0202052Y0055687D01*
X0202058Y0055774D01*
X0202067Y0055861D01*
X0202080Y0055947D01*
X0202097Y0056033D01*
X0202118Y0056118D01*
X0202143Y0056201D01*
X0202171Y0056284D01*
X0202202Y0056365D01*
X0202237Y0056445D01*
X0202276Y0056523D01*
X0202318Y0056600D01*
X0202363Y0056675D01*
X0202412Y0056747D01*
X0202463Y0056818D01*
X0202518Y0056886D01*
X0202575Y0056951D01*
X0202636Y0057014D01*
X0202699Y0057075D01*
X0202764Y0057132D01*
X0202832Y0057187D01*
X0202903Y0057238D01*
X0202975Y0057287D01*
X0203050Y0057332D01*
X0203127Y0057374D01*
X0203205Y0057413D01*
X0203285Y0057448D01*
X0203366Y0057479D01*
X0203449Y0057507D01*
X0203532Y0057532D01*
X0203617Y0057553D01*
X0203703Y0057570D01*
X0203789Y0057583D01*
X0203876Y0057592D01*
X0203963Y0057598D01*
X0204050Y0057600D01*
X0221050Y0057600D01*
X0224550Y0060100D02*
X0224637Y0060098D01*
X0224724Y0060092D01*
X0224811Y0060083D01*
X0224897Y0060070D01*
X0224983Y0060053D01*
X0225068Y0060032D01*
X0225151Y0060007D01*
X0225234Y0059979D01*
X0225315Y0059948D01*
X0225395Y0059913D01*
X0225473Y0059874D01*
X0225550Y0059832D01*
X0225625Y0059787D01*
X0225697Y0059738D01*
X0225768Y0059687D01*
X0225836Y0059632D01*
X0225901Y0059575D01*
X0225964Y0059514D01*
X0226025Y0059451D01*
X0226082Y0059386D01*
X0226137Y0059318D01*
X0226188Y0059247D01*
X0226237Y0059175D01*
X0226282Y0059100D01*
X0226324Y0059023D01*
X0226363Y0058945D01*
X0226398Y0058865D01*
X0226429Y0058784D01*
X0226457Y0058701D01*
X0226482Y0058618D01*
X0226503Y0058533D01*
X0226520Y0058447D01*
X0226533Y0058361D01*
X0226542Y0058274D01*
X0226548Y0058187D01*
X0226550Y0058100D01*
X0230050Y0058100D02*
X0230048Y0058226D01*
X0230042Y0058351D01*
X0230032Y0058476D01*
X0230018Y0058601D01*
X0230001Y0058726D01*
X0229979Y0058850D01*
X0229954Y0058973D01*
X0229924Y0059095D01*
X0229891Y0059216D01*
X0229854Y0059336D01*
X0229814Y0059455D01*
X0229769Y0059572D01*
X0229721Y0059689D01*
X0229669Y0059803D01*
X0229614Y0059916D01*
X0229555Y0060027D01*
X0229493Y0060136D01*
X0229427Y0060243D01*
X0229358Y0060348D01*
X0229286Y0060451D01*
X0229211Y0060552D01*
X0229132Y0060650D01*
X0229050Y0060745D01*
X0228966Y0060838D01*
X0228878Y0060928D01*
X0228788Y0061016D01*
X0228695Y0061100D01*
X0228600Y0061182D01*
X0228502Y0061261D01*
X0228401Y0061336D01*
X0228298Y0061408D01*
X0228193Y0061477D01*
X0228086Y0061543D01*
X0227977Y0061605D01*
X0227866Y0061664D01*
X0227753Y0061719D01*
X0227639Y0061771D01*
X0227522Y0061819D01*
X0227405Y0061864D01*
X0227286Y0061904D01*
X0227166Y0061941D01*
X0227045Y0061974D01*
X0226923Y0062004D01*
X0226800Y0062029D01*
X0226676Y0062051D01*
X0226551Y0062068D01*
X0226426Y0062082D01*
X0226301Y0062092D01*
X0226176Y0062098D01*
X0226050Y0062100D01*
X0230050Y0058100D02*
X0230052Y0058011D01*
X0230058Y0057922D01*
X0230067Y0057833D01*
X0230080Y0057745D01*
X0230097Y0057658D01*
X0230118Y0057571D01*
X0230142Y0057485D01*
X0230170Y0057400D01*
X0230201Y0057317D01*
X0230236Y0057235D01*
X0230275Y0057155D01*
X0230317Y0057076D01*
X0230362Y0056999D01*
X0230410Y0056924D01*
X0230462Y0056851D01*
X0230516Y0056781D01*
X0230574Y0056713D01*
X0230634Y0056647D01*
X0230697Y0056584D01*
X0230763Y0056524D01*
X0230831Y0056466D01*
X0230901Y0056412D01*
X0230974Y0056360D01*
X0231049Y0056312D01*
X0231126Y0056267D01*
X0231205Y0056225D01*
X0231285Y0056186D01*
X0231367Y0056151D01*
X0231450Y0056120D01*
X0231535Y0056092D01*
X0231621Y0056068D01*
X0231708Y0056047D01*
X0231795Y0056030D01*
X0231883Y0056017D01*
X0231972Y0056008D01*
X0232061Y0056002D01*
X0232150Y0056000D01*
X0237550Y0056000D01*
X0232550Y0073100D02*
X0232552Y0073206D01*
X0232558Y0073312D01*
X0232567Y0073417D01*
X0232581Y0073522D01*
X0232598Y0073627D01*
X0232619Y0073731D01*
X0232644Y0073834D01*
X0232673Y0073935D01*
X0232705Y0074036D01*
X0232741Y0074136D01*
X0232781Y0074234D01*
X0232824Y0074331D01*
X0232871Y0074426D01*
X0232921Y0074519D01*
X0232975Y0074611D01*
X0233031Y0074700D01*
X0233091Y0074787D01*
X0233155Y0074872D01*
X0233221Y0074955D01*
X0233290Y0075035D01*
X0233362Y0075113D01*
X0233437Y0075188D01*
X0233515Y0075260D01*
X0233595Y0075329D01*
X0233678Y0075395D01*
X0233763Y0075459D01*
X0233850Y0075519D01*
X0233939Y0075575D01*
X0234031Y0075629D01*
X0234124Y0075679D01*
X0234219Y0075726D01*
X0234316Y0075769D01*
X0234414Y0075809D01*
X0234514Y0075845D01*
X0234615Y0075877D01*
X0234716Y0075906D01*
X0234819Y0075931D01*
X0234923Y0075952D01*
X0235028Y0075969D01*
X0235133Y0075983D01*
X0235238Y0075992D01*
X0235344Y0075998D01*
X0235450Y0076000D01*
X0237885Y0076000D01*
X0191932Y0075717D02*
X0191930Y0075586D01*
X0191924Y0075454D01*
X0191915Y0075323D01*
X0191901Y0075193D01*
X0191884Y0075062D01*
X0191863Y0074933D01*
X0191839Y0074804D01*
X0191810Y0074675D01*
X0191778Y0074548D01*
X0191742Y0074422D01*
X0191703Y0074296D01*
X0191660Y0074172D01*
X0191613Y0074049D01*
X0191563Y0073928D01*
X0191509Y0073808D01*
X0191452Y0073690D01*
X0191391Y0073573D01*
X0191327Y0073458D01*
X0191259Y0073346D01*
X0191189Y0073235D01*
X0191115Y0073126D01*
X0191038Y0073020D01*
X0190958Y0072915D01*
X0190875Y0072814D01*
X0190789Y0072714D01*
X0190701Y0072617D01*
X0190609Y0072523D01*
X0190515Y0072431D01*
X0190418Y0072343D01*
X0190318Y0072257D01*
X0190217Y0072174D01*
X0190112Y0072094D01*
X0190006Y0072017D01*
X0189897Y0071943D01*
X0189786Y0071873D01*
X0189673Y0071805D01*
X0189559Y0071741D01*
X0189442Y0071680D01*
X0189324Y0071623D01*
X0189204Y0071569D01*
X0189083Y0071519D01*
X0188960Y0071472D01*
X0188836Y0071429D01*
X0188710Y0071390D01*
X0188584Y0071354D01*
X0188457Y0071322D01*
X0188328Y0071293D01*
X0188199Y0071269D01*
X0188070Y0071248D01*
X0187939Y0071231D01*
X0187809Y0071217D01*
X0187678Y0071208D01*
X0187546Y0071202D01*
X0187415Y0071200D01*
X0175750Y0071200D01*
X0077269Y0063100D02*
X0077131Y0063098D01*
X0076993Y0063092D01*
X0076855Y0063082D01*
X0076717Y0063068D01*
X0076580Y0063051D01*
X0076444Y0063029D01*
X0076308Y0063004D01*
X0076173Y0062974D01*
X0076039Y0062941D01*
X0075906Y0062904D01*
X0075774Y0062863D01*
X0075643Y0062819D01*
X0075513Y0062770D01*
X0075385Y0062718D01*
X0075259Y0062663D01*
X0075134Y0062604D01*
X0075011Y0062541D01*
X0074890Y0062475D01*
X0074770Y0062405D01*
X0074653Y0062332D01*
X0074538Y0062255D01*
X0074425Y0062176D01*
X0074314Y0062093D01*
X0074206Y0062007D01*
X0074100Y0061918D01*
X0073997Y0061826D01*
X0073897Y0061731D01*
X0073799Y0061633D01*
X0073704Y0061533D01*
X0073612Y0061430D01*
X0073523Y0061324D01*
X0073437Y0061216D01*
X0073354Y0061105D01*
X0073275Y0060992D01*
X0073198Y0060877D01*
X0073125Y0060760D01*
X0073055Y0060640D01*
X0072989Y0060519D01*
X0072926Y0060396D01*
X0072867Y0060271D01*
X0072812Y0060145D01*
X0072760Y0060017D01*
X0072711Y0059887D01*
X0072667Y0059756D01*
X0072626Y0059624D01*
X0072589Y0059491D01*
X0072556Y0059357D01*
X0072526Y0059222D01*
X0072501Y0059086D01*
X0072479Y0058950D01*
X0072462Y0058813D01*
X0072448Y0058675D01*
X0072438Y0058537D01*
X0072432Y0058399D01*
X0072430Y0058261D01*
X0057750Y0067200D02*
X0057750Y0074579D01*
X0057748Y0074617D01*
X0057742Y0074654D01*
X0057732Y0074690D01*
X0057719Y0074725D01*
X0057702Y0074759D01*
X0057681Y0074790D01*
X0057658Y0074819D01*
X0057631Y0074846D01*
X0057602Y0074869D01*
X0057571Y0074890D01*
X0057537Y0074907D01*
X0057502Y0074920D01*
X0057466Y0074930D01*
X0057429Y0074936D01*
X0057391Y0074938D01*
X0057391Y0074939D02*
X0057388Y0074940D01*
X0057386Y0074942D01*
X0057385Y0074945D01*
X0057384Y0074945D02*
X0057384Y0076533D01*
X0062384Y0076533D02*
X0062384Y0074864D01*
X0062385Y0074864D02*
X0062386Y0074861D01*
X0062388Y0074859D01*
X0062391Y0074858D01*
X0067384Y0074945D02*
X0067384Y0076533D01*
X0072384Y0076533D02*
X0072384Y0074945D01*
X0072385Y0074945D02*
X0072386Y0074942D01*
X0072388Y0074940D01*
X0072391Y0074939D01*
X0067391Y0074939D02*
X0067388Y0074940D01*
X0067386Y0074942D01*
X0067385Y0074945D01*
D18*
X0186550Y0065100D03*
X0196050Y0056100D03*
X0221050Y0057600D03*
X0226550Y0058100D03*
X0232550Y0073100D03*
M02*
