G75*
%MOIN*%
%OFA0B0*%
%FSLAX25Y25*%
%IPPOS*%
%LPD*%
%AMOC8*
5,1,8,0,0,1.08239X$1,22.5*
%
%ADD10R,0.02992X0.03150*%
%ADD11C,0.03012*%
%ADD12C,0.01587*%
%ADD13C,0.00600*%
%ADD14C,0.00800*%
%ADD15C,0.02000*%
D10*
X0057391Y0057261D03*
X0062391Y0057261D03*
X0067391Y0057261D03*
X0072430Y0057261D03*
X0072391Y0074939D03*
X0067391Y0074939D03*
X0062391Y0074858D03*
X0057391Y0074939D03*
D11*
X0057384Y0055667D03*
X0062384Y0055667D03*
X0067384Y0055667D03*
X0072384Y0055667D03*
X0072384Y0076533D03*
X0067384Y0076533D03*
X0062384Y0076533D03*
X0057384Y0076533D03*
D12*
X0073250Y0071700D03*
X0077250Y0071100D03*
X0087250Y0071100D03*
X0096750Y0071100D03*
X0107750Y0071100D03*
X0118250Y0071100D03*
X0128750Y0071100D03*
X0139150Y0071100D03*
X0149250Y0071100D03*
X0159550Y0071100D03*
X0175750Y0071200D03*
X0188250Y0075200D03*
X0195750Y0075700D03*
X0203250Y0074500D03*
X0207250Y0079200D03*
X0215150Y0079400D03*
X0221250Y0079200D03*
X0230250Y0079200D03*
X0218850Y0074700D03*
X0212950Y0074600D03*
X0192250Y0079200D03*
X0187750Y0081700D03*
X0198750Y0066200D03*
X0207250Y0066200D03*
X0218250Y0065700D03*
X0223550Y0066200D03*
X0233750Y0065900D03*
X0231250Y0062200D03*
X0215250Y0055300D03*
X0207250Y0055200D03*
X0199750Y0057200D03*
X0222750Y0054200D03*
X0057750Y0063700D03*
X0057750Y0067200D03*
D13*
X0056250Y0067600D02*
X0226250Y0067600D01*
X0226250Y0067503D02*
X0188050Y0067503D01*
X0188050Y0066905D02*
X0226250Y0066905D01*
X0226250Y0066306D02*
X0188050Y0066306D01*
X0188050Y0066287D02*
X0188050Y0088600D01*
X0241550Y0088600D01*
X0241550Y0043100D01*
X0188088Y0043100D01*
X0188050Y0043130D01*
X0188050Y0058070D01*
X0188248Y0057798D01*
X0190862Y0055898D01*
X0193934Y0054900D01*
X0194563Y0054900D01*
X0195263Y0054200D01*
X0196837Y0054200D01*
X0197950Y0055313D01*
X0197950Y0056887D01*
X0196837Y0058000D01*
X0195263Y0058000D01*
X0194635Y0057372D01*
X0194330Y0057396D01*
X0192009Y0058150D01*
X0190035Y0059585D01*
X0188600Y0061559D01*
X0188050Y0063252D01*
X0188050Y0063913D01*
X0188450Y0064313D01*
X0188450Y0065887D01*
X0188050Y0066287D01*
X0188050Y0087600D01*
X0188050Y0087853D02*
X0241550Y0087853D01*
X0241550Y0088100D02*
X0241550Y0043100D01*
X0189050Y0043100D01*
X0172550Y0059600D01*
X0171460Y0059600D01*
X0171409Y0059649D01*
X0168811Y0060698D01*
X0168811Y0060698D01*
X0167432Y0060698D01*
X0074238Y0060698D01*
X0073535Y0059995D01*
X0073535Y0059736D01*
X0070561Y0059736D01*
X0070425Y0059600D01*
X0069396Y0059600D01*
X0069259Y0059736D01*
X0065522Y0059736D01*
X0065386Y0059600D01*
X0064396Y0059600D01*
X0064259Y0059736D01*
X0060522Y0059736D01*
X0060386Y0059600D01*
X0059679Y0059600D01*
X0059562Y0059716D01*
X0059311Y0059861D01*
X0059032Y0059936D01*
X0057691Y0059936D01*
X0057691Y0059600D01*
X0057091Y0059600D01*
X0057091Y0059936D01*
X0056250Y0059936D01*
X0056250Y0072264D01*
X0057091Y0072264D01*
X0057091Y0072600D01*
X0057691Y0072600D01*
X0057691Y0072264D01*
X0059032Y0072264D01*
X0059311Y0072339D01*
X0059562Y0072484D01*
X0059679Y0072600D01*
X0060305Y0072600D01*
X0060522Y0072383D01*
X0064259Y0072383D01*
X0064476Y0072600D01*
X0065386Y0072600D01*
X0065522Y0072464D01*
X0069259Y0072464D01*
X0069396Y0072600D01*
X0070103Y0072600D01*
X0070219Y0072484D01*
X0070470Y0072339D01*
X0070750Y0072264D01*
X0072091Y0072264D01*
X0072091Y0072600D01*
X0072691Y0072600D01*
X0072691Y0072264D01*
X0073658Y0072264D01*
X0074238Y0071683D01*
X0161467Y0071683D01*
X0162050Y0071100D01*
X0171550Y0071100D01*
X0171550Y0059600D01*
X0171409Y0059649D02*
X0171409Y0059649D01*
X0170291Y0060100D02*
X0186575Y0060100D01*
X0186550Y0060134D02*
X0186550Y0045600D01*
X0187050Y0045100D02*
X0241550Y0045100D01*
X0241550Y0045358D02*
X0188050Y0045358D01*
X0188050Y0044760D02*
X0241550Y0044760D01*
X0241550Y0044161D02*
X0188050Y0044161D01*
X0188050Y0044100D02*
X0188050Y0058070D01*
X0188050Y0057927D02*
X0188154Y0057927D01*
X0188248Y0057798D02*
X0188248Y0057798D01*
X0188248Y0057798D01*
X0190862Y0055898D01*
X0190862Y0055898D01*
X0193934Y0054900D01*
X0194563Y0054900D01*
X0195263Y0054200D01*
X0196837Y0054200D01*
X0197950Y0055313D01*
X0197950Y0056887D01*
X0196837Y0058000D01*
X0195263Y0058000D01*
X0194635Y0057372D01*
X0194330Y0057396D01*
X0192009Y0058150D01*
X0190035Y0059585D01*
X0188600Y0061559D01*
X0187888Y0063751D01*
X0188450Y0064313D01*
X0188450Y0065887D01*
X0187337Y0067000D01*
X0185763Y0067000D01*
X0184650Y0065887D01*
X0184650Y0064313D01*
X0185350Y0063613D01*
X0185350Y0063484D01*
X0186348Y0060412D01*
X0188248Y0057798D01*
X0188248Y0057798D01*
X0188248Y0057798D01*
X0188050Y0057329D02*
X0188893Y0057329D01*
X0189208Y0057100D02*
X0175050Y0057100D01*
X0174550Y0057600D02*
X0174550Y0074100D01*
X0174050Y0073600D02*
X0229366Y0073600D01*
X0229096Y0073488D02*
X0188050Y0073488D01*
X0188050Y0072890D02*
X0228430Y0072890D01*
X0228550Y0073010D02*
X0228550Y0090100D01*
X0230050Y0090100D02*
X0230050Y0073884D01*
X0230541Y0074087D02*
X0188050Y0074087D01*
X0188050Y0074685D02*
X0231448Y0074685D01*
X0231550Y0074787D02*
X0231550Y0090100D01*
X0233050Y0090100D02*
X0233050Y0075000D01*
X0233337Y0075000D02*
X0231763Y0075000D01*
X0231068Y0074305D01*
X0228981Y0073441D01*
X0227209Y0071669D01*
X0227209Y0071669D01*
X0227209Y0071669D01*
X0228981Y0073441D01*
X0228981Y0073441D01*
X0228981Y0073441D01*
X0231068Y0074305D01*
X0231763Y0075000D01*
X0233337Y0075000D01*
X0234450Y0073887D01*
X0234450Y0072313D01*
X0233337Y0071200D01*
X0231763Y0071200D01*
X0231408Y0071555D01*
X0230494Y0071176D01*
X0229474Y0070156D01*
X0228921Y0068822D01*
X0228921Y0068822D01*
X0228850Y0068100D01*
X0228850Y0065312D01*
X0229961Y0066424D01*
X0229961Y0066424D01*
X0231836Y0067200D01*
X0232655Y0067200D01*
X0233048Y0067594D01*
X0234452Y0067594D01*
X0235444Y0066602D01*
X0235444Y0065198D01*
X0234452Y0064206D01*
X0233048Y0064206D01*
X0232672Y0064582D01*
X0232362Y0064552D01*
X0231461Y0064179D01*
X0230771Y0063489D01*
X0230398Y0062588D01*
X0230350Y0062100D01*
X0230350Y0059582D01*
X0229332Y0057818D01*
X0229332Y0057818D01*
X0229332Y0057818D01*
X0230350Y0059582D01*
X0230350Y0062100D01*
X0230398Y0062588D01*
X0230771Y0063489D01*
X0231461Y0064179D01*
X0232362Y0064552D01*
X0232672Y0064582D01*
X0233048Y0064206D01*
X0234452Y0064206D01*
X0235444Y0065198D01*
X0235444Y0066602D01*
X0234452Y0067594D01*
X0233048Y0067594D01*
X0232655Y0067200D01*
X0231836Y0067200D01*
X0229961Y0066424D01*
X0228850Y0065312D01*
X0228850Y0068100D01*
X0228921Y0068822D01*
X0229474Y0070156D01*
X0230494Y0071176D01*
X0231408Y0071555D01*
X0231763Y0071200D01*
X0233337Y0071200D01*
X0234450Y0072313D01*
X0234450Y0073887D01*
X0233337Y0075000D01*
X0233652Y0074685D02*
X0241550Y0074685D01*
X0241550Y0075100D02*
X0175550Y0075100D01*
X0176050Y0075600D02*
X0176050Y0056100D01*
X0176550Y0055600D02*
X0191780Y0055600D01*
X0191986Y0055533D02*
X0188050Y0055533D01*
X0188050Y0054934D02*
X0193828Y0054934D01*
X0194050Y0054900D02*
X0194050Y0043100D01*
X0192550Y0043100D02*
X0192550Y0055350D01*
X0191050Y0055837D02*
X0191050Y0043100D01*
X0189550Y0043100D02*
X0189550Y0056851D01*
X0189717Y0056730D02*
X0188050Y0056730D01*
X0188050Y0056132D02*
X0190541Y0056132D01*
X0190862Y0055898D02*
X0190862Y0055898D01*
X0188050Y0054336D02*
X0195127Y0054336D01*
X0195550Y0054200D02*
X0195550Y0043100D01*
X0197050Y0043100D02*
X0197050Y0054413D01*
X0196973Y0054336D02*
X0241550Y0054336D01*
X0241550Y0054100D02*
X0178050Y0054100D01*
X0177550Y0054600D02*
X0177550Y0077100D01*
X0177050Y0076600D02*
X0241550Y0076600D01*
X0241550Y0076481D02*
X0188050Y0076481D01*
X0188050Y0077079D02*
X0241550Y0077079D01*
X0241550Y0077678D02*
X0188050Y0077678D01*
X0188050Y0078276D02*
X0241550Y0078276D01*
X0241550Y0078100D02*
X0178550Y0078100D01*
X0179050Y0078600D02*
X0179050Y0053100D01*
X0179550Y0052600D02*
X0241550Y0052600D01*
X0241550Y0052540D02*
X0188050Y0052540D01*
X0188050Y0051942D02*
X0241550Y0051942D01*
X0241550Y0051343D02*
X0232408Y0051343D01*
X0231920Y0051546D02*
X0230857Y0051546D01*
X0229875Y0051139D01*
X0229124Y0050387D01*
X0228717Y0049405D01*
X0228717Y0048343D01*
X0229124Y0047361D01*
X0229875Y0046609D01*
X0230857Y0046202D01*
X0231920Y0046202D01*
X0232902Y0046609D01*
X0233653Y0047361D01*
X0234060Y0048343D01*
X0234060Y0049405D01*
X0233653Y0050387D01*
X0232902Y0051139D01*
X0231920Y0051546D01*
X0230857Y0051546D01*
X0229875Y0051139D01*
X0229124Y0050387D01*
X0228717Y0049405D01*
X0228717Y0048343D01*
X0229124Y0047361D01*
X0229875Y0046609D01*
X0230857Y0046202D01*
X0231920Y0046202D01*
X0232902Y0046609D01*
X0233653Y0047361D01*
X0234060Y0048343D01*
X0234060Y0049405D01*
X0233653Y0050387D01*
X0232902Y0051139D01*
X0231920Y0051546D01*
X0231550Y0051546D02*
X0231550Y0064216D01*
X0231195Y0063912D02*
X0241550Y0063912D01*
X0241550Y0063314D02*
X0230699Y0063314D01*
X0230610Y0063100D02*
X0241550Y0063100D01*
X0241550Y0062715D02*
X0230451Y0062715D01*
X0230352Y0062117D02*
X0241550Y0062117D01*
X0241550Y0061600D02*
X0230350Y0061600D01*
X0230350Y0061518D02*
X0241550Y0061518D01*
X0241550Y0060920D02*
X0230350Y0060920D01*
X0230350Y0060321D02*
X0241550Y0060321D01*
X0241550Y0060100D02*
X0230350Y0060100D01*
X0230350Y0059723D02*
X0241550Y0059723D01*
X0241550Y0059124D02*
X0230086Y0059124D01*
X0230050Y0059062D02*
X0230050Y0051211D01*
X0229836Y0051100D02*
X0181050Y0051100D01*
X0180550Y0051600D02*
X0180550Y0080100D01*
X0180050Y0079600D02*
X0241550Y0079600D01*
X0241550Y0079473D02*
X0188050Y0079473D01*
X0188050Y0078875D02*
X0241550Y0078875D01*
X0241550Y0080072D02*
X0188050Y0080072D01*
X0188050Y0080670D02*
X0241550Y0080670D01*
X0241550Y0081100D02*
X0181550Y0081100D01*
X0182050Y0081600D02*
X0182050Y0050100D01*
X0182550Y0049600D02*
X0228798Y0049600D01*
X0228776Y0049548D02*
X0188050Y0049548D01*
X0188050Y0050146D02*
X0229024Y0050146D01*
X0229481Y0050745D02*
X0188050Y0050745D01*
X0188050Y0051343D02*
X0230369Y0051343D01*
X0232941Y0051100D02*
X0241550Y0051100D01*
X0241550Y0050745D02*
X0233296Y0050745D01*
X0233050Y0050991D02*
X0233050Y0064206D01*
X0232744Y0064511D02*
X0232263Y0064511D01*
X0234550Y0064305D02*
X0234550Y0043100D01*
X0236050Y0043100D02*
X0236050Y0090100D01*
X0234550Y0090100D02*
X0234550Y0067495D01*
X0234542Y0067503D02*
X0241550Y0067503D01*
X0241550Y0067600D02*
X0228850Y0067600D01*
X0228850Y0067503D02*
X0232958Y0067503D01*
X0233050Y0067594D02*
X0233050Y0071200D01*
X0233830Y0071693D02*
X0241550Y0071693D01*
X0241550Y0072100D02*
X0234237Y0072100D01*
X0234428Y0072291D02*
X0241550Y0072291D01*
X0241550Y0072890D02*
X0234450Y0072890D01*
X0234450Y0073488D02*
X0241550Y0073488D01*
X0241550Y0073600D02*
X0234450Y0073600D01*
X0234250Y0074087D02*
X0241550Y0074087D01*
X0241550Y0075284D02*
X0188050Y0075284D01*
X0188050Y0075882D02*
X0241550Y0075882D01*
X0241550Y0071094D02*
X0230412Y0071094D01*
X0230050Y0070732D02*
X0230050Y0066460D01*
X0229961Y0066424D02*
X0229961Y0066424D01*
X0229844Y0066306D02*
X0228850Y0066306D01*
X0228850Y0066100D02*
X0229638Y0066100D01*
X0229245Y0065708D02*
X0228850Y0065708D01*
X0226250Y0065708D02*
X0188450Y0065708D01*
X0188237Y0066100D02*
X0226250Y0066100D01*
X0226250Y0065109D02*
X0188450Y0065109D01*
X0188450Y0064600D02*
X0226250Y0064600D01*
X0226250Y0064511D02*
X0188450Y0064511D01*
X0188050Y0063913D02*
X0188050Y0063252D01*
X0188050Y0063314D02*
X0225992Y0063314D01*
X0225869Y0063100D02*
X0188099Y0063100D01*
X0188224Y0062715D02*
X0225436Y0062715D01*
X0225550Y0062781D02*
X0225550Y0090100D01*
X0227050Y0090100D02*
X0227050Y0071285D01*
X0226971Y0071094D02*
X0188050Y0071094D01*
X0188050Y0070496D02*
X0226723Y0070496D01*
X0226766Y0070600D02*
X0056250Y0070600D01*
X0056250Y0069100D02*
X0226250Y0069100D01*
X0226250Y0069299D02*
X0188050Y0069299D01*
X0188050Y0069897D02*
X0226475Y0069897D01*
X0226250Y0069353D02*
X0226250Y0064100D01*
X0226192Y0063660D01*
X0225752Y0062898D01*
X0224990Y0062458D01*
X0224550Y0062400D01*
X0223595Y0062400D01*
X0221831Y0061669D01*
X0220481Y0060319D01*
X0220056Y0059293D01*
X0219150Y0058387D01*
X0219150Y0056813D01*
X0220263Y0055700D01*
X0221837Y0055700D01*
X0222950Y0056813D01*
X0222950Y0058387D01*
X0222660Y0058677D01*
X0222721Y0058822D01*
X0223328Y0059429D01*
X0224121Y0059758D01*
X0224550Y0059800D01*
X0225563Y0059800D01*
X0224650Y0058887D01*
X0224650Y0057313D01*
X0225763Y0056200D01*
X0227337Y0056200D01*
X0228441Y0057304D01*
X0229332Y0057818D01*
X0229332Y0057818D01*
X0228441Y0057304D01*
X0227337Y0056200D01*
X0225763Y0056200D01*
X0224650Y0057313D01*
X0224650Y0058887D01*
X0225563Y0059800D01*
X0224550Y0059800D01*
X0224121Y0059758D01*
X0223328Y0059429D01*
X0222721Y0058822D01*
X0222660Y0058677D01*
X0222950Y0058387D01*
X0222950Y0056813D01*
X0221837Y0055700D01*
X0220263Y0055700D01*
X0219150Y0056813D01*
X0219150Y0058387D01*
X0220056Y0059293D01*
X0220481Y0060319D01*
X0220481Y0060319D01*
X0220481Y0060319D01*
X0221831Y0061669D01*
X0221831Y0061669D01*
X0221831Y0061669D01*
X0223595Y0062400D01*
X0224550Y0062400D01*
X0224990Y0062458D01*
X0225752Y0062898D01*
X0226192Y0063660D01*
X0226192Y0063660D01*
X0226250Y0064100D01*
X0226250Y0069353D01*
X0227209Y0071669D01*
X0226250Y0069353D01*
X0226250Y0068700D02*
X0188050Y0068700D01*
X0188050Y0068102D02*
X0226250Y0068102D01*
X0228850Y0068102D02*
X0241550Y0068102D01*
X0241550Y0068700D02*
X0228909Y0068700D01*
X0229036Y0069100D02*
X0241550Y0069100D01*
X0241550Y0069299D02*
X0229119Y0069299D01*
X0229367Y0069897D02*
X0241550Y0069897D01*
X0241550Y0070496D02*
X0229814Y0070496D01*
X0229918Y0070600D02*
X0241550Y0070600D01*
X0241550Y0066905D02*
X0235141Y0066905D01*
X0235444Y0066306D02*
X0241550Y0066306D01*
X0241550Y0066100D02*
X0235444Y0066100D01*
X0235444Y0065708D02*
X0241550Y0065708D01*
X0241550Y0065109D02*
X0235354Y0065109D01*
X0234845Y0064600D02*
X0241550Y0064600D01*
X0241550Y0064511D02*
X0234756Y0064511D01*
X0231550Y0067082D02*
X0231550Y0071413D01*
X0227832Y0072291D02*
X0188050Y0072291D01*
X0188050Y0071693D02*
X0227233Y0071693D01*
X0227640Y0072100D02*
X0172550Y0072100D01*
X0173050Y0072600D02*
X0173050Y0059100D01*
X0173550Y0058600D02*
X0187665Y0058600D01*
X0186348Y0060412D02*
X0186348Y0060412D01*
X0188630Y0061518D02*
X0221680Y0061518D01*
X0221762Y0061600D02*
X0188587Y0061600D01*
X0188419Y0062117D02*
X0222911Y0062117D01*
X0222550Y0061967D02*
X0222550Y0090100D01*
X0224050Y0090100D02*
X0224050Y0062400D01*
X0221081Y0060920D02*
X0189065Y0060920D01*
X0189499Y0060321D02*
X0220483Y0060321D01*
X0220390Y0060100D02*
X0189660Y0060100D01*
X0189550Y0060251D02*
X0189550Y0089100D01*
X0189050Y0088600D02*
X0241050Y0088600D01*
X0241550Y0088451D02*
X0188050Y0088451D01*
X0188050Y0087254D02*
X0241550Y0087254D01*
X0241550Y0087100D02*
X0187550Y0087100D01*
X0188050Y0086656D02*
X0241550Y0086656D01*
X0241550Y0086057D02*
X0200183Y0086057D01*
X0200050Y0086190D02*
X0200050Y0090100D01*
X0198550Y0090100D02*
X0198550Y0086585D01*
X0197768Y0086585D02*
X0196433Y0085251D01*
X0196433Y0083364D01*
X0197768Y0082029D01*
X0199655Y0082029D01*
X0200989Y0083364D01*
X0200989Y0085251D01*
X0199655Y0086585D01*
X0197768Y0086585D01*
X0196433Y0085251D01*
X0196433Y0083364D01*
X0197768Y0082029D01*
X0199655Y0082029D01*
X0200989Y0083364D01*
X0200989Y0085251D01*
X0199655Y0086585D01*
X0197768Y0086585D01*
X0197240Y0086057D02*
X0188050Y0086057D01*
X0188050Y0085459D02*
X0196641Y0085459D01*
X0196783Y0085600D02*
X0186050Y0085600D01*
X0186550Y0086100D02*
X0186550Y0067000D01*
X0185050Y0066287D02*
X0185050Y0084600D01*
X0184550Y0084100D02*
X0196433Y0084100D01*
X0196433Y0084262D02*
X0188050Y0084262D01*
X0188050Y0084860D02*
X0196433Y0084860D01*
X0197050Y0085867D02*
X0197050Y0090100D01*
X0195550Y0090100D02*
X0195550Y0058000D01*
X0195190Y0057927D02*
X0192695Y0057927D01*
X0192550Y0057974D02*
X0192550Y0090100D01*
X0194050Y0090100D02*
X0194050Y0057487D01*
X0191492Y0058526D02*
X0219289Y0058526D01*
X0219363Y0058600D02*
X0191390Y0058600D01*
X0191050Y0058847D02*
X0191050Y0090100D01*
X0190550Y0090100D02*
X0239550Y0090100D01*
X0241550Y0088100D01*
X0240550Y0089100D02*
X0240550Y0043100D01*
X0241550Y0043563D02*
X0188050Y0043563D01*
X0188550Y0043600D02*
X0241550Y0043600D01*
X0239050Y0043100D02*
X0239050Y0090100D01*
X0237550Y0090100D02*
X0237550Y0043100D01*
X0233050Y0043100D02*
X0233050Y0046757D01*
X0232880Y0046600D02*
X0241550Y0046600D01*
X0241550Y0046555D02*
X0232772Y0046555D01*
X0233447Y0047154D02*
X0241550Y0047154D01*
X0241550Y0047752D02*
X0233816Y0047752D01*
X0233960Y0048100D02*
X0241550Y0048100D01*
X0241550Y0048351D02*
X0234060Y0048351D01*
X0234060Y0048949D02*
X0241550Y0048949D01*
X0241550Y0049548D02*
X0234001Y0049548D01*
X0233980Y0049600D02*
X0241550Y0049600D01*
X0241550Y0050146D02*
X0233753Y0050146D01*
X0228717Y0048949D02*
X0188050Y0048949D01*
X0188050Y0048351D02*
X0228717Y0048351D01*
X0228817Y0048100D02*
X0184050Y0048100D01*
X0183550Y0048600D02*
X0183550Y0083100D01*
X0183050Y0082600D02*
X0197197Y0082600D01*
X0197331Y0082466D02*
X0188050Y0082466D01*
X0188050Y0081868D02*
X0241550Y0081868D01*
X0241550Y0082466D02*
X0200092Y0082466D01*
X0200050Y0082424D02*
X0200050Y0043100D01*
X0198550Y0043100D02*
X0198550Y0082029D01*
X0197050Y0082747D02*
X0197050Y0057787D01*
X0196910Y0057927D02*
X0219150Y0057927D01*
X0219150Y0057329D02*
X0197508Y0057329D01*
X0197737Y0057100D02*
X0219150Y0057100D01*
X0219233Y0056730D02*
X0197950Y0056730D01*
X0197950Y0056132D02*
X0219831Y0056132D01*
X0219550Y0056413D02*
X0219550Y0043100D01*
X0221050Y0043100D02*
X0221050Y0055700D01*
X0222269Y0056132D02*
X0241550Y0056132D01*
X0241550Y0055600D02*
X0197950Y0055600D01*
X0197950Y0055533D02*
X0241550Y0055533D01*
X0241550Y0054934D02*
X0197571Y0054934D01*
X0196050Y0056100D02*
X0195550Y0056100D01*
X0190668Y0059124D02*
X0219887Y0059124D01*
X0219550Y0058787D02*
X0219550Y0090100D01*
X0221050Y0090100D02*
X0221050Y0060888D01*
X0220234Y0059723D02*
X0189934Y0059723D01*
X0185962Y0061600D02*
X0056250Y0061600D01*
X0056250Y0063100D02*
X0185475Y0063100D01*
X0185050Y0063913D02*
X0185050Y0047100D01*
X0185550Y0046600D02*
X0229897Y0046600D01*
X0230005Y0046555D02*
X0188050Y0046555D01*
X0188050Y0045957D02*
X0241550Y0045957D01*
X0231550Y0046202D02*
X0231550Y0043100D01*
X0230050Y0043100D02*
X0230050Y0046537D01*
X0229330Y0047154D02*
X0188050Y0047154D01*
X0188050Y0047752D02*
X0228961Y0047752D01*
X0228550Y0043100D02*
X0228550Y0057367D01*
X0228484Y0057329D02*
X0241550Y0057329D01*
X0241550Y0057100D02*
X0228237Y0057100D01*
X0227867Y0056730D02*
X0241550Y0056730D01*
X0241550Y0057927D02*
X0229395Y0057927D01*
X0229740Y0058526D02*
X0241550Y0058526D01*
X0241550Y0058600D02*
X0229783Y0058600D01*
X0225550Y0059787D02*
X0225550Y0059800D01*
X0225486Y0059723D02*
X0224036Y0059723D01*
X0224050Y0059728D02*
X0224050Y0043100D01*
X0222550Y0043100D02*
X0222550Y0056413D01*
X0222867Y0056730D02*
X0225233Y0056730D01*
X0225550Y0056413D02*
X0225550Y0043100D01*
X0227050Y0043100D02*
X0227050Y0056200D01*
X0224863Y0057100D02*
X0222950Y0057100D01*
X0222950Y0057329D02*
X0224650Y0057329D01*
X0224650Y0057927D02*
X0222950Y0057927D01*
X0222811Y0058526D02*
X0224650Y0058526D01*
X0224650Y0058600D02*
X0222737Y0058600D01*
X0223023Y0059124D02*
X0224887Y0059124D01*
X0226225Y0063912D02*
X0188050Y0063912D01*
X0184650Y0064600D02*
X0056250Y0064600D01*
X0056250Y0066100D02*
X0184863Y0066100D01*
X0186550Y0065100D02*
X0186553Y0064883D01*
X0186561Y0064665D01*
X0186574Y0064448D01*
X0186592Y0064231D01*
X0186616Y0064015D01*
X0186644Y0063800D01*
X0186678Y0063585D01*
X0186718Y0063371D01*
X0186762Y0063158D01*
X0186812Y0062946D01*
X0186866Y0062736D01*
X0186926Y0062526D01*
X0186990Y0062319D01*
X0187060Y0062113D01*
X0187135Y0061909D01*
X0187214Y0061706D01*
X0187299Y0061506D01*
X0187388Y0061307D01*
X0187482Y0061111D01*
X0187581Y0060917D01*
X0187684Y0060726D01*
X0187792Y0060537D01*
X0187905Y0060351D01*
X0188022Y0060168D01*
X0188143Y0059987D01*
X0188269Y0059810D01*
X0188399Y0059636D01*
X0188533Y0059464D01*
X0188671Y0059296D01*
X0188813Y0059132D01*
X0188960Y0058971D01*
X0189110Y0058813D01*
X0189263Y0058660D01*
X0189421Y0058510D01*
X0189582Y0058363D01*
X0189746Y0058221D01*
X0189914Y0058083D01*
X0190086Y0057949D01*
X0190260Y0057819D01*
X0190437Y0057693D01*
X0190618Y0057572D01*
X0190801Y0057455D01*
X0190987Y0057342D01*
X0191176Y0057234D01*
X0191367Y0057131D01*
X0191561Y0057032D01*
X0191757Y0056938D01*
X0191956Y0056849D01*
X0192156Y0056764D01*
X0192359Y0056685D01*
X0192563Y0056610D01*
X0192769Y0056540D01*
X0192976Y0056476D01*
X0193186Y0056416D01*
X0193396Y0056362D01*
X0193608Y0056312D01*
X0193821Y0056268D01*
X0194035Y0056228D01*
X0194250Y0056194D01*
X0194465Y0056166D01*
X0194681Y0056142D01*
X0194898Y0056124D01*
X0195115Y0056111D01*
X0195333Y0056103D01*
X0195550Y0056100D01*
X0188050Y0053737D02*
X0241550Y0053737D01*
X0241550Y0053139D02*
X0188050Y0053139D01*
X0170050Y0060197D02*
X0170050Y0071100D01*
X0168550Y0071100D02*
X0168550Y0060698D01*
X0167050Y0060698D02*
X0167050Y0071100D01*
X0165550Y0071100D02*
X0165550Y0060698D01*
X0164050Y0060698D02*
X0164050Y0071100D01*
X0162550Y0071100D02*
X0162550Y0060698D01*
X0161050Y0060698D02*
X0161050Y0071683D01*
X0159550Y0071683D02*
X0159550Y0060698D01*
X0158050Y0060698D02*
X0158050Y0071683D01*
X0156550Y0071683D02*
X0156550Y0060698D01*
X0155050Y0060698D02*
X0155050Y0071683D01*
X0153550Y0071683D02*
X0153550Y0060698D01*
X0152050Y0060698D02*
X0152050Y0071683D01*
X0150550Y0071683D02*
X0150550Y0060698D01*
X0149050Y0060698D02*
X0149050Y0071683D01*
X0147550Y0071683D02*
X0147550Y0060698D01*
X0146050Y0060698D02*
X0146050Y0071683D01*
X0144550Y0071683D02*
X0144550Y0060698D01*
X0143050Y0060698D02*
X0143050Y0071683D01*
X0141550Y0071683D02*
X0141550Y0060698D01*
X0140050Y0060698D02*
X0140050Y0071683D01*
X0138550Y0071683D02*
X0138550Y0060698D01*
X0137050Y0060698D02*
X0137050Y0071683D01*
X0135550Y0071683D02*
X0135550Y0060698D01*
X0134050Y0060698D02*
X0134050Y0071683D01*
X0132550Y0071683D02*
X0132550Y0060698D01*
X0131050Y0060698D02*
X0131050Y0071683D01*
X0129550Y0071683D02*
X0129550Y0060698D01*
X0128050Y0060698D02*
X0128050Y0071683D01*
X0126550Y0071683D02*
X0126550Y0060698D01*
X0125050Y0060698D02*
X0125050Y0071683D01*
X0123550Y0071683D02*
X0123550Y0060698D01*
X0122050Y0060698D02*
X0122050Y0071683D01*
X0120550Y0071683D02*
X0120550Y0060698D01*
X0119050Y0060698D02*
X0119050Y0071683D01*
X0117550Y0071683D02*
X0117550Y0060698D01*
X0116050Y0060698D02*
X0116050Y0071683D01*
X0114550Y0071683D02*
X0114550Y0060698D01*
X0113050Y0060698D02*
X0113050Y0071683D01*
X0111550Y0071683D02*
X0111550Y0060698D01*
X0110050Y0060698D02*
X0110050Y0071683D01*
X0108550Y0071683D02*
X0108550Y0060698D01*
X0107050Y0060698D02*
X0107050Y0071683D01*
X0105550Y0071683D02*
X0105550Y0060698D01*
X0104050Y0060698D02*
X0104050Y0071683D01*
X0102550Y0071683D02*
X0102550Y0060698D01*
X0101050Y0060698D02*
X0101050Y0071683D01*
X0099550Y0071683D02*
X0099550Y0060698D01*
X0098050Y0060698D02*
X0098050Y0071683D01*
X0096550Y0071683D02*
X0096550Y0060698D01*
X0095050Y0060698D02*
X0095050Y0071683D01*
X0093550Y0071683D02*
X0093550Y0060698D01*
X0092050Y0060698D02*
X0092050Y0071683D01*
X0090550Y0071683D02*
X0090550Y0060698D01*
X0089050Y0060698D02*
X0089050Y0071683D01*
X0087550Y0071683D02*
X0087550Y0060698D01*
X0086050Y0060698D02*
X0086050Y0071683D01*
X0084550Y0071683D02*
X0084550Y0060698D01*
X0083050Y0060698D02*
X0083050Y0071683D01*
X0081550Y0071683D02*
X0081550Y0060698D01*
X0080050Y0060698D02*
X0080050Y0071683D01*
X0078550Y0071683D02*
X0078550Y0060698D01*
X0077050Y0060698D02*
X0077050Y0071683D01*
X0075550Y0071683D02*
X0075550Y0060698D01*
X0074050Y0060510D02*
X0074050Y0071871D01*
X0073821Y0072100D02*
X0056250Y0072100D01*
X0057550Y0072600D02*
X0057550Y0059600D01*
X0057476Y0060126D02*
X0057476Y0057255D01*
X0056250Y0060100D02*
X0073640Y0060100D01*
X0072550Y0059736D02*
X0072550Y0072600D01*
X0071050Y0072264D02*
X0071050Y0059736D01*
X0069550Y0059600D02*
X0069550Y0072600D01*
X0068050Y0072464D02*
X0068050Y0059736D01*
X0066550Y0059736D02*
X0066550Y0072464D01*
X0065050Y0072600D02*
X0065050Y0059600D01*
X0063550Y0059736D02*
X0063550Y0072383D01*
X0062050Y0072383D02*
X0062050Y0059736D01*
X0060550Y0059736D02*
X0060550Y0072383D01*
X0059050Y0072269D02*
X0059050Y0059931D01*
X0171550Y0071100D02*
X0190550Y0090100D01*
X0201550Y0090100D02*
X0201550Y0043100D01*
X0203050Y0043100D02*
X0203050Y0090100D01*
X0204550Y0090100D02*
X0204550Y0043100D01*
X0206050Y0043100D02*
X0206050Y0090100D01*
X0207550Y0090100D02*
X0207550Y0043100D01*
X0209050Y0043100D02*
X0209050Y0090100D01*
X0210550Y0090100D02*
X0210550Y0043100D01*
X0212050Y0043100D02*
X0212050Y0090100D01*
X0213550Y0090100D02*
X0213550Y0043100D01*
X0215050Y0043100D02*
X0215050Y0090100D01*
X0216550Y0090100D02*
X0216550Y0043100D01*
X0218050Y0043100D02*
X0218050Y0090100D01*
X0200989Y0084860D02*
X0241550Y0084860D01*
X0241550Y0084262D02*
X0200989Y0084262D01*
X0200989Y0084100D02*
X0241550Y0084100D01*
X0241550Y0083663D02*
X0200989Y0083663D01*
X0200690Y0083065D02*
X0241550Y0083065D01*
X0241550Y0082600D02*
X0200226Y0082600D01*
X0196732Y0083065D02*
X0188050Y0083065D01*
X0188050Y0083663D02*
X0196433Y0083663D01*
X0200640Y0085600D02*
X0241550Y0085600D01*
X0241550Y0085459D02*
X0200781Y0085459D01*
X0188050Y0081269D02*
X0241550Y0081269D01*
X0231123Y0066905D02*
X0228850Y0066905D01*
D14*
X0227550Y0068100D02*
X0227550Y0064100D01*
X0227548Y0063993D01*
X0227542Y0063886D01*
X0227533Y0063779D01*
X0227519Y0063673D01*
X0227502Y0063567D01*
X0227481Y0063462D01*
X0227457Y0063358D01*
X0227428Y0063255D01*
X0227396Y0063153D01*
X0227361Y0063052D01*
X0227322Y0062952D01*
X0227279Y0062854D01*
X0227233Y0062757D01*
X0227183Y0062662D01*
X0227130Y0062569D01*
X0227074Y0062478D01*
X0227014Y0062389D01*
X0226952Y0062302D01*
X0226886Y0062218D01*
X0226817Y0062135D01*
X0226746Y0062056D01*
X0226671Y0061979D01*
X0226594Y0061904D01*
X0226515Y0061833D01*
X0226432Y0061764D01*
X0226348Y0061698D01*
X0226261Y0061636D01*
X0226172Y0061576D01*
X0226081Y0061520D01*
X0225988Y0061467D01*
X0225893Y0061417D01*
X0225796Y0061371D01*
X0225698Y0061328D01*
X0225598Y0061289D01*
X0225497Y0061254D01*
X0225395Y0061222D01*
X0225292Y0061193D01*
X0225188Y0061169D01*
X0225083Y0061148D01*
X0224977Y0061131D01*
X0224871Y0061117D01*
X0224764Y0061108D01*
X0224657Y0061102D01*
X0224550Y0061100D01*
X0226550Y0058100D02*
X0226648Y0058102D01*
X0226746Y0058108D01*
X0226844Y0058117D01*
X0226941Y0058131D01*
X0227038Y0058148D01*
X0227134Y0058169D01*
X0227229Y0058194D01*
X0227323Y0058222D01*
X0227415Y0058255D01*
X0227507Y0058290D01*
X0227597Y0058330D01*
X0227685Y0058372D01*
X0227772Y0058419D01*
X0227856Y0058468D01*
X0227939Y0058521D01*
X0228019Y0058577D01*
X0228098Y0058637D01*
X0228174Y0058699D01*
X0228247Y0058764D01*
X0228318Y0058832D01*
X0228386Y0058903D01*
X0228451Y0058976D01*
X0228513Y0059052D01*
X0228573Y0059131D01*
X0228629Y0059211D01*
X0228682Y0059294D01*
X0228731Y0059378D01*
X0228778Y0059465D01*
X0228820Y0059553D01*
X0228860Y0059643D01*
X0228895Y0059735D01*
X0228928Y0059827D01*
X0228956Y0059921D01*
X0228981Y0060016D01*
X0229002Y0060112D01*
X0229019Y0060209D01*
X0229033Y0060306D01*
X0229042Y0060404D01*
X0229048Y0060502D01*
X0229050Y0060600D01*
X0229050Y0062100D01*
X0229052Y0062222D01*
X0229058Y0062343D01*
X0229068Y0062465D01*
X0229081Y0062586D01*
X0229099Y0062706D01*
X0229120Y0062826D01*
X0229145Y0062946D01*
X0229174Y0063064D01*
X0229207Y0063181D01*
X0229244Y0063297D01*
X0229284Y0063412D01*
X0229328Y0063526D01*
X0229375Y0063638D01*
X0229426Y0063749D01*
X0229481Y0063858D01*
X0229539Y0063965D01*
X0229600Y0064070D01*
X0229665Y0064173D01*
X0229733Y0064274D01*
X0229805Y0064373D01*
X0229879Y0064469D01*
X0229957Y0064563D01*
X0230037Y0064655D01*
X0230120Y0064744D01*
X0230206Y0064830D01*
X0230295Y0064913D01*
X0230387Y0064993D01*
X0230481Y0065071D01*
X0230577Y0065145D01*
X0230676Y0065217D01*
X0230777Y0065285D01*
X0230880Y0065350D01*
X0230985Y0065411D01*
X0231092Y0065469D01*
X0231201Y0065524D01*
X0231312Y0065575D01*
X0231424Y0065622D01*
X0231538Y0065666D01*
X0231653Y0065706D01*
X0231769Y0065743D01*
X0231886Y0065776D01*
X0232004Y0065805D01*
X0232124Y0065830D01*
X0232244Y0065851D01*
X0232364Y0065869D01*
X0232485Y0065882D01*
X0232607Y0065892D01*
X0232728Y0065898D01*
X0232850Y0065900D01*
X0233750Y0065900D01*
X0227550Y0068100D02*
X0227552Y0068240D01*
X0227558Y0068380D01*
X0227568Y0068520D01*
X0227581Y0068660D01*
X0227599Y0068799D01*
X0227621Y0068938D01*
X0227646Y0069075D01*
X0227675Y0069213D01*
X0227708Y0069349D01*
X0227745Y0069484D01*
X0227786Y0069618D01*
X0227831Y0069751D01*
X0227879Y0069883D01*
X0227931Y0070013D01*
X0227986Y0070142D01*
X0228045Y0070269D01*
X0228108Y0070395D01*
X0228174Y0070519D01*
X0228243Y0070640D01*
X0228316Y0070760D01*
X0228393Y0070878D01*
X0228472Y0070993D01*
X0228555Y0071107D01*
X0228641Y0071217D01*
X0228730Y0071326D01*
X0228822Y0071432D01*
X0228917Y0071535D01*
X0229014Y0071636D01*
X0229115Y0071733D01*
X0229218Y0071828D01*
X0229324Y0071920D01*
X0229433Y0072009D01*
X0229543Y0072095D01*
X0229657Y0072178D01*
X0229772Y0072257D01*
X0229890Y0072334D01*
X0230010Y0072407D01*
X0230131Y0072476D01*
X0230255Y0072542D01*
X0230381Y0072605D01*
X0230508Y0072664D01*
X0230637Y0072719D01*
X0230767Y0072771D01*
X0230899Y0072819D01*
X0231032Y0072864D01*
X0231166Y0072905D01*
X0231301Y0072942D01*
X0231437Y0072975D01*
X0231575Y0073004D01*
X0231712Y0073029D01*
X0231851Y0073051D01*
X0231990Y0073069D01*
X0232130Y0073082D01*
X0232270Y0073092D01*
X0232410Y0073098D01*
X0232550Y0073100D01*
X0224550Y0061100D02*
X0224433Y0061098D01*
X0224316Y0061092D01*
X0224200Y0061082D01*
X0224083Y0061069D01*
X0223968Y0061051D01*
X0223853Y0061030D01*
X0223739Y0061005D01*
X0223625Y0060976D01*
X0223513Y0060943D01*
X0223402Y0060906D01*
X0223292Y0060866D01*
X0223184Y0060822D01*
X0223077Y0060775D01*
X0222971Y0060724D01*
X0222868Y0060669D01*
X0222766Y0060611D01*
X0222667Y0060550D01*
X0222569Y0060486D01*
X0222474Y0060418D01*
X0222381Y0060347D01*
X0222290Y0060273D01*
X0222202Y0060196D01*
X0222117Y0060116D01*
X0222034Y0060033D01*
X0221954Y0059948D01*
X0221877Y0059860D01*
X0221803Y0059769D01*
X0221732Y0059676D01*
X0221664Y0059581D01*
X0221600Y0059483D01*
X0221539Y0059384D01*
X0221481Y0059282D01*
X0221426Y0059179D01*
X0221375Y0059073D01*
X0221328Y0058966D01*
X0221284Y0058858D01*
X0221244Y0058748D01*
X0221207Y0058637D01*
X0221174Y0058525D01*
X0221145Y0058411D01*
X0221120Y0058297D01*
X0221099Y0058182D01*
X0221081Y0058067D01*
X0221068Y0057950D01*
X0221058Y0057834D01*
X0221052Y0057717D01*
X0221050Y0057600D01*
X0072430Y0057261D02*
X0072430Y0055713D01*
X0072428Y0055701D01*
X0072424Y0055690D01*
X0072417Y0055680D01*
X0072407Y0055673D01*
X0072396Y0055669D01*
X0072384Y0055667D01*
X0067391Y0055673D02*
X0067391Y0057261D01*
X0067390Y0055673D02*
X0067389Y0055670D01*
X0067387Y0055668D01*
X0067384Y0055667D01*
X0062391Y0055673D02*
X0062391Y0057261D01*
X0062390Y0055673D02*
X0062389Y0055670D01*
X0062387Y0055668D01*
X0062384Y0055667D01*
X0057391Y0055673D02*
X0057391Y0057261D01*
X0057390Y0055673D02*
X0057389Y0055670D01*
X0057387Y0055668D01*
X0057384Y0055667D01*
X0057391Y0072259D02*
X0057391Y0074939D01*
X0057384Y0076533D02*
X0057384Y0072266D01*
X0057385Y0072266D02*
X0057386Y0072263D01*
X0057388Y0072261D01*
X0057391Y0072260D01*
X0057391Y0072259D02*
X0057393Y0072236D01*
X0057397Y0072214D01*
X0057405Y0072193D01*
X0057416Y0072173D01*
X0057430Y0072155D01*
X0057446Y0072139D01*
X0057464Y0072125D01*
X0057484Y0072114D01*
X0057505Y0072106D01*
X0057527Y0072102D01*
X0057550Y0072100D01*
X0062384Y0074864D02*
X0062384Y0076533D01*
X0062385Y0074864D02*
X0062386Y0074861D01*
X0062388Y0074859D01*
X0062391Y0074858D01*
X0067384Y0074945D02*
X0067384Y0076533D01*
X0072384Y0076533D02*
X0072384Y0074945D01*
X0072385Y0074945D02*
X0072386Y0074942D01*
X0072388Y0074940D01*
X0072391Y0074939D01*
X0067391Y0074939D02*
X0067388Y0074940D01*
X0067386Y0074942D01*
X0067385Y0074945D01*
D15*
X0186550Y0065100D03*
X0196050Y0056100D03*
X0221050Y0057600D03*
X0226550Y0058100D03*
X0232550Y0073100D03*
M02*
