%
M48
M72
T01C0.00787
T02C0.01000
T03C0.02008
T04C0.02756
T05C0.03543
%
T01
X57750Y63700
X57750Y67200
X73250Y71700
X77250Y71100
X87250Y71100
X96750Y71100
X107750Y71100
X118250Y71100
X128750Y71100
X139150Y71100
X149250Y71100
X159550Y71100
X175750Y71200
X188250Y75200
X195750Y75700
X203250Y74500
X207250Y79200
X215150Y79400
X221250Y79200
X230250Y79200
X218850Y74700
X212950Y74600
X192250Y79200
X187750Y81700
X198750Y66200
X207250Y66200
X218250Y65700
X223550Y66200
X233750Y65900
X231250Y62200
X215250Y55300
X207250Y55200
X199750Y57200
X222750Y54200
T02
X221050Y57600
X226550Y58100
X196050Y56100
X186550Y65100
X232550Y73100
T03
X57384Y55667
X62384Y55667
X67384Y55667
X72384Y55667
X72384Y76533
X67384Y76533
X62384Y76533
X57384Y76533
T04
X198711Y84307
T05
X231389Y48874
M30
