G75*
%MOIN*%
%OFA0B0*%
%FSLAX25Y25*%
%IPPOS*%
%LPD*%
%AMOC8*
5,1,8,0,0,1.08239X$1,22.5*
%
%ADD10R,0.03150X0.02992*%
%ADD11C,0.03012*%
%ADD12C,0.01587*%
%ADD13C,0.00600*%
%ADD14C,0.02000*%
D10*
X0055515Y0077592D03*
X0055515Y0082632D03*
X0055515Y0087632D03*
X0055515Y0092632D03*
X0073192Y0092632D03*
X0073112Y0087632D03*
X0073192Y0082632D03*
X0073192Y0077632D03*
D11*
X0074787Y0077638D03*
X0074787Y0082638D03*
X0074787Y0087638D03*
X0074787Y0092638D03*
X0053921Y0092638D03*
X0053921Y0087638D03*
X0053921Y0082638D03*
X0053921Y0077638D03*
D12*
X0077250Y0071100D03*
X0087250Y0071100D03*
X0096750Y0071100D03*
X0107750Y0071100D03*
X0118250Y0071100D03*
X0128750Y0071100D03*
X0139150Y0071100D03*
X0149250Y0071100D03*
X0159550Y0071100D03*
X0182750Y0076200D03*
X0188250Y0075200D03*
X0192250Y0079200D03*
X0195750Y0075700D03*
X0203250Y0074500D03*
X0207250Y0079200D03*
X0212950Y0074600D03*
X0218850Y0074700D03*
X0221250Y0079200D03*
X0230250Y0079200D03*
X0233750Y0065900D03*
X0231250Y0062200D03*
X0223550Y0066200D03*
X0218250Y0065700D03*
X0207250Y0066200D03*
X0198750Y0066200D03*
X0186550Y0063800D03*
X0198750Y0055700D03*
X0207250Y0055200D03*
X0215250Y0055300D03*
X0222750Y0054200D03*
X0187750Y0081700D03*
D13*
X0067906Y0060815D02*
X0064229Y0061800D01*
X0060932Y0063703D01*
X0058813Y0065822D01*
X0058455Y0066783D01*
X0058152Y0068177D01*
X0058050Y0069600D01*
X0058050Y0090598D01*
X0058115Y0090711D01*
X0058190Y0090991D01*
X0058190Y0092332D01*
X0058050Y0092332D01*
X0058050Y0092932D01*
X0058190Y0092932D01*
X0058190Y0093697D01*
X0070517Y0093697D01*
X0070517Y0092932D01*
X0070550Y0092932D01*
X0070550Y0092332D01*
X0070517Y0092332D01*
X0070517Y0090991D01*
X0070550Y0090869D01*
X0070550Y0079394D01*
X0070517Y0079272D01*
X0070517Y0077932D01*
X0070550Y0077932D01*
X0070550Y0077332D01*
X0070517Y0077332D01*
X0070517Y0075991D01*
X0070586Y0075735D01*
X0070617Y0075417D01*
X0070816Y0074761D01*
X0071140Y0074155D01*
X0071575Y0073625D01*
X0072105Y0073190D01*
X0072711Y0072866D01*
X0073367Y0072667D01*
X0074050Y0072600D01*
X0074050Y0060690D01*
X0074230Y0060690D02*
X0069810Y0060690D01*
X0067906Y0060815D01*
X0068050Y0060805D02*
X0068050Y0093697D01*
X0067082Y0092632D02*
X0073192Y0092632D01*
X0073199Y0092638D01*
X0074787Y0092638D01*
X0070517Y0093100D02*
X0058190Y0093100D01*
X0059050Y0093697D02*
X0059050Y0065585D01*
X0058710Y0066100D02*
X0173973Y0066100D01*
X0174329Y0066958D02*
X0173050Y0063871D01*
X0173050Y0073172D01*
X0174042Y0073242D02*
X0172050Y0073100D01*
X0171769Y0073100D01*
X0171434Y0072765D01*
X0171434Y0072765D01*
X0171399Y0072750D01*
X0171344Y0072695D01*
X0171205Y0072624D01*
X0171050Y0072600D01*
X0171036Y0072600D01*
X0168823Y0071683D01*
X0077308Y0071683D01*
X0077303Y0071679D01*
X0077123Y0071683D01*
X0076088Y0071683D01*
X0076060Y0071711D01*
X0075841Y0071717D01*
X0075841Y0071717D01*
X0074401Y0072600D01*
X0074050Y0072600D01*
X0075216Y0072100D02*
X0058050Y0072100D01*
X0058050Y0070600D02*
X0182763Y0070600D01*
X0179779Y0070600D01*
X0176692Y0069321D01*
X0176692Y0069321D01*
X0174329Y0066958D01*
X0174329Y0066958D01*
X0174550Y0067179D02*
X0174550Y0073353D01*
X0174042Y0073242D02*
X0175994Y0073667D01*
X0177866Y0074365D01*
X0179619Y0075322D01*
X0181218Y0076520D01*
X0182630Y0077932D01*
X0183828Y0079531D01*
X0184785Y0081284D01*
X0185483Y0083156D01*
X0185908Y0085108D01*
X0186050Y0087100D01*
X0195050Y0087100D01*
X0195050Y0088600D02*
X0187337Y0088600D01*
X0187590Y0088851D02*
X0187591Y0088851D01*
X0187941Y0089201D01*
X0187943Y0089203D01*
X0188656Y0089788D01*
X0190352Y0090491D01*
X0191270Y0090581D01*
X0194194Y0090581D01*
X0194309Y0090566D01*
X0194550Y0090466D01*
X0194757Y0090307D01*
X0194916Y0090100D01*
X0189409Y0090100D01*
X0189550Y0090158D02*
X0189550Y0058381D01*
X0189351Y0058526D02*
X0223237Y0058526D01*
X0222750Y0059013D02*
X0223863Y0057900D01*
X0225437Y0057900D01*
X0226285Y0058748D01*
X0228071Y0059779D01*
X0229250Y0061821D01*
X0229250Y0063000D01*
X0229308Y0063440D01*
X0229748Y0064202D01*
X0230510Y0064642D01*
X0230950Y0064700D01*
X0232555Y0064700D01*
X0233048Y0064206D01*
X0234452Y0064206D01*
X0235444Y0065198D01*
X0235444Y0066602D01*
X0234452Y0067594D01*
X0233048Y0067594D01*
X0232555Y0067100D01*
X0229851Y0067100D01*
X0227949Y0066001D01*
X0226850Y0064099D01*
X0226850Y0063000D01*
X0226782Y0062482D01*
X0226264Y0061586D01*
X0225812Y0061325D01*
X0225437Y0061700D01*
X0223863Y0061700D01*
X0222750Y0060587D01*
X0222750Y0059013D01*
X0222750Y0059124D02*
X0188527Y0059124D01*
X0188050Y0059470D02*
X0188050Y0089291D01*
X0187590Y0088851D02*
X0186074Y0087342D01*
X0186050Y0087100D01*
X0186550Y0087816D02*
X0186550Y0061260D01*
X0186303Y0061600D02*
X0195050Y0061600D01*
X0195050Y0063100D02*
X0185653Y0063100D01*
X0186550Y0063800D02*
X0186550Y0073500D01*
X0188250Y0075200D01*
X0188050Y0075284D02*
X0241550Y0075284D01*
X0241550Y0075882D02*
X0188050Y0075882D01*
X0188050Y0076481D02*
X0241550Y0076481D01*
X0241550Y0077079D02*
X0188050Y0077079D01*
X0188050Y0077678D02*
X0241550Y0077678D01*
X0241550Y0078276D02*
X0188050Y0078276D01*
X0188050Y0078875D02*
X0241550Y0078875D01*
X0241550Y0079473D02*
X0188050Y0079473D01*
X0188050Y0080072D02*
X0241550Y0080072D01*
X0241550Y0080670D02*
X0188050Y0080670D01*
X0188050Y0081269D02*
X0241550Y0081269D01*
X0241550Y0081868D02*
X0188050Y0081868D01*
X0188050Y0082466D02*
X0197331Y0082466D01*
X0197768Y0082029D02*
X0199655Y0082029D01*
X0200989Y0083364D01*
X0200989Y0085251D01*
X0199655Y0086585D01*
X0197768Y0086585D01*
X0196433Y0085251D01*
X0196433Y0083364D01*
X0197768Y0082029D01*
X0196732Y0083065D02*
X0188050Y0083065D01*
X0188050Y0083663D02*
X0196433Y0083663D01*
X0196433Y0084262D02*
X0188050Y0084262D01*
X0188050Y0084860D02*
X0196433Y0084860D01*
X0196641Y0085459D02*
X0188050Y0085459D01*
X0188050Y0086057D02*
X0197240Y0086057D01*
X0195050Y0085600D02*
X0185943Y0085600D01*
X0185688Y0084100D02*
X0195050Y0084100D01*
X0195050Y0082600D02*
X0185276Y0082600D01*
X0185050Y0081995D02*
X0185050Y0071287D01*
X0185037Y0071300D02*
X0183463Y0071300D01*
X0182763Y0070600D01*
X0182050Y0070600D02*
X0182050Y0077351D01*
X0182756Y0078100D02*
X0195050Y0078100D01*
X0195050Y0076600D02*
X0181299Y0076600D01*
X0180550Y0076019D02*
X0180550Y0070600D01*
X0181450Y0069400D02*
X0184250Y0069400D01*
X0185737Y0070600D02*
X0195050Y0070600D01*
X0195050Y0069100D02*
X0186150Y0069100D01*
X0186150Y0068613D02*
X0186150Y0070187D01*
X0185037Y0071300D01*
X0183550Y0071300D02*
X0183550Y0079160D01*
X0183865Y0079600D02*
X0195050Y0079600D01*
X0195050Y0081100D02*
X0184684Y0081100D01*
X0188050Y0086656D02*
X0241550Y0086656D01*
X0241550Y0087254D02*
X0188050Y0087254D01*
X0188050Y0087853D02*
X0241550Y0087853D01*
X0241550Y0088451D02*
X0188050Y0088451D01*
X0188050Y0088600D02*
X0188050Y0059470D01*
X0189855Y0058159D01*
X0187627Y0059777D01*
X0186009Y0062005D01*
X0185159Y0064622D01*
X0185750Y0065213D01*
X0185750Y0066787D01*
X0185037Y0067500D01*
X0186150Y0068613D01*
X0185137Y0067600D02*
X0195050Y0067600D01*
X0195050Y0066100D02*
X0185750Y0066100D01*
X0185050Y0067487D02*
X0185050Y0067513D01*
X0185037Y0067500D02*
X0185037Y0067500D01*
X0183063Y0067900D02*
X0183063Y0067900D01*
X0181950Y0066787D01*
X0181950Y0065213D01*
X0182650Y0064513D01*
X0182650Y0064226D01*
X0183746Y0060852D01*
X0185832Y0057982D01*
X0188702Y0055896D01*
X0192076Y0054800D01*
X0194563Y0054800D01*
X0195050Y0054313D01*
X0195050Y0044100D01*
X0195016Y0043841D01*
X0194916Y0043600D01*
X0187627Y0043600D01*
X0187550Y0043636D02*
X0187505Y0043667D01*
X0186134Y0045031D01*
X0186086Y0045100D01*
X0195050Y0045100D01*
X0195050Y0046600D02*
X0185594Y0046600D01*
X0185611Y0046405D02*
X0185550Y0047100D01*
X0185550Y0048600D01*
X0185438Y0050165D01*
X0185104Y0051699D01*
X0184556Y0053170D01*
X0183804Y0054547D01*
X0182863Y0055803D01*
X0181753Y0056913D01*
X0180497Y0057854D01*
X0179120Y0058606D01*
X0177649Y0059154D01*
X0176115Y0059488D01*
X0174550Y0059600D01*
X0174550Y0060300D01*
X0175037Y0060300D02*
X0176150Y0061413D01*
X0176150Y0062987D01*
X0175624Y0063513D01*
X0176461Y0065533D01*
X0178117Y0067189D01*
X0180279Y0068085D01*
X0181450Y0068200D01*
X0182763Y0068200D01*
X0183063Y0067900D01*
X0182763Y0067600D02*
X0179109Y0067600D01*
X0179050Y0067575D02*
X0179050Y0058632D01*
X0179130Y0058600D02*
X0185382Y0058600D01*
X0185050Y0059058D02*
X0185050Y0051845D01*
X0185235Y0051100D02*
X0195050Y0051100D01*
X0195050Y0052600D02*
X0184768Y0052600D01*
X0188050Y0052540D02*
X0241550Y0052540D01*
X0241550Y0051942D02*
X0188050Y0051942D01*
X0188050Y0051343D02*
X0230369Y0051343D01*
X0230857Y0051546D02*
X0229875Y0051139D01*
X0229124Y0050387D01*
X0228717Y0049405D01*
X0228717Y0048343D01*
X0229124Y0047361D01*
X0229875Y0046609D01*
X0230857Y0046202D01*
X0231920Y0046202D01*
X0232902Y0046609D01*
X0233653Y0047361D01*
X0234060Y0048343D01*
X0234060Y0049405D01*
X0233653Y0050387D01*
X0232902Y0051139D01*
X0231920Y0051546D01*
X0230857Y0051546D01*
X0232408Y0051343D02*
X0241550Y0051343D01*
X0241550Y0050745D02*
X0233296Y0050745D01*
X0233753Y0050146D02*
X0241550Y0050146D01*
X0241550Y0049548D02*
X0234001Y0049548D01*
X0234060Y0048949D02*
X0241550Y0048949D01*
X0241550Y0048351D02*
X0234060Y0048351D01*
X0233816Y0047752D02*
X0241550Y0047752D01*
X0241550Y0047154D02*
X0233447Y0047154D01*
X0232772Y0046555D02*
X0241550Y0046555D01*
X0241550Y0045957D02*
X0188050Y0045957D01*
X0188050Y0046555D02*
X0230005Y0046555D01*
X0229330Y0047154D02*
X0188050Y0047154D01*
X0188050Y0047752D02*
X0228961Y0047752D01*
X0228717Y0048351D02*
X0188050Y0048351D01*
X0188050Y0048949D02*
X0228717Y0048949D01*
X0228776Y0049548D02*
X0188050Y0049548D01*
X0188050Y0050146D02*
X0229024Y0050146D01*
X0229481Y0050745D02*
X0188050Y0050745D01*
X0185478Y0049600D02*
X0195050Y0049600D01*
X0195050Y0048100D02*
X0185550Y0048100D01*
X0185611Y0046405D02*
X0185791Y0045732D01*
X0186086Y0045100D01*
X0186550Y0044617D02*
X0186550Y0057460D01*
X0187045Y0057100D02*
X0181504Y0057100D01*
X0182050Y0056617D02*
X0182050Y0065113D01*
X0182563Y0064600D02*
X0176075Y0064600D01*
X0176050Y0064541D02*
X0176050Y0063087D01*
X0176037Y0063100D02*
X0183016Y0063100D01*
X0183503Y0061600D02*
X0176150Y0061600D01*
X0176050Y0061313D02*
X0176050Y0059493D01*
X0175037Y0060300D02*
X0173463Y0060300D01*
X0172350Y0061413D01*
X0172350Y0062987D01*
X0173050Y0063687D01*
X0173050Y0063871D01*
X0173352Y0064600D02*
X0060035Y0064600D01*
X0060550Y0064085D02*
X0060550Y0093697D01*
X0062050Y0093697D02*
X0062050Y0063058D01*
X0061977Y0063100D02*
X0172463Y0063100D01*
X0172350Y0061600D02*
X0064975Y0061600D01*
X0065050Y0061580D02*
X0065050Y0093697D01*
X0066018Y0092632D02*
X0055515Y0092632D01*
X0055509Y0092638D01*
X0053921Y0092638D01*
X0055515Y0092632D02*
X0055521Y0092638D01*
X0058190Y0091600D02*
X0070517Y0091600D01*
X0067082Y0092632D02*
X0067038Y0092630D01*
X0066994Y0092625D01*
X0066951Y0092616D01*
X0066909Y0092603D01*
X0066868Y0092587D01*
X0066829Y0092568D01*
X0066791Y0092545D01*
X0066755Y0092520D01*
X0066722Y0092491D01*
X0066691Y0092460D01*
X0066662Y0092427D01*
X0066637Y0092391D01*
X0066614Y0092353D01*
X0066595Y0092314D01*
X0066579Y0092273D01*
X0066566Y0092231D01*
X0066557Y0092188D01*
X0066552Y0092144D01*
X0066550Y0092100D01*
X0066548Y0092144D01*
X0066543Y0092188D01*
X0066534Y0092231D01*
X0066521Y0092273D01*
X0066505Y0092314D01*
X0066486Y0092353D01*
X0066463Y0092391D01*
X0066438Y0092427D01*
X0066409Y0092460D01*
X0066378Y0092491D01*
X0066345Y0092520D01*
X0066309Y0092545D01*
X0066271Y0092568D01*
X0066232Y0092587D01*
X0066191Y0092603D01*
X0066149Y0092616D01*
X0066106Y0092625D01*
X0066062Y0092630D01*
X0066018Y0092632D01*
X0066550Y0093697D02*
X0066550Y0061178D01*
X0069550Y0060707D02*
X0069550Y0093697D01*
X0063550Y0093697D02*
X0063550Y0062192D01*
X0071050Y0060690D02*
X0071050Y0074324D01*
X0070713Y0075100D02*
X0058050Y0075100D01*
X0058050Y0073600D02*
X0071606Y0073600D01*
X0072550Y0072952D02*
X0072550Y0060690D01*
X0074230Y0060690D02*
X0074238Y0060698D01*
X0167439Y0060698D01*
X0168811Y0060698D01*
X0168811Y0060698D01*
X0171409Y0059649D01*
X0171409Y0059649D01*
X0171460Y0059600D01*
X0174550Y0059600D01*
X0173050Y0059600D02*
X0173050Y0060713D01*
X0171550Y0059600D02*
X0171550Y0072881D01*
X0170050Y0072192D02*
X0170050Y0060197D01*
X0170291Y0060100D02*
X0184293Y0060100D01*
X0183746Y0060852D02*
X0183746Y0060852D01*
X0183550Y0061456D02*
X0183550Y0054886D01*
X0183016Y0055600D02*
X0189614Y0055600D01*
X0189550Y0055621D02*
X0189550Y0043100D01*
X0188855Y0043161D01*
X0188182Y0043341D01*
X0187550Y0043636D01*
X0188050Y0043563D02*
X0241550Y0043563D01*
X0241550Y0043100D02*
X0188088Y0043100D01*
X0188050Y0043130D01*
X0188050Y0056370D01*
X0188050Y0043403D01*
X0188050Y0044161D02*
X0241550Y0044161D01*
X0241550Y0044760D02*
X0188050Y0044760D01*
X0188050Y0045358D02*
X0241550Y0045358D01*
X0241550Y0043100D02*
X0241550Y0088600D01*
X0188050Y0088600D01*
X0191050Y0090559D02*
X0191050Y0057771D01*
X0190569Y0057927D02*
X0223836Y0057927D01*
X0225464Y0057927D02*
X0241550Y0057927D01*
X0241550Y0057329D02*
X0197408Y0057329D01*
X0197950Y0056787D02*
X0196837Y0057900D01*
X0195263Y0057900D01*
X0194563Y0057200D01*
X0193850Y0057200D01*
X0192473Y0057308D01*
X0189855Y0058159D01*
X0192473Y0057308D01*
X0193850Y0057200D01*
X0194563Y0057200D01*
X0195050Y0057687D01*
X0195050Y0089600D01*
X0195016Y0089859D01*
X0194916Y0090100D01*
X0194050Y0090581D02*
X0194050Y0057200D01*
X0194692Y0057329D02*
X0192411Y0057329D01*
X0192550Y0057302D02*
X0192550Y0090581D01*
X0200183Y0086057D02*
X0241550Y0086057D01*
X0241550Y0085459D02*
X0200781Y0085459D01*
X0200989Y0084860D02*
X0241550Y0084860D01*
X0241550Y0084262D02*
X0200989Y0084262D01*
X0200989Y0083663D02*
X0241550Y0083663D01*
X0241550Y0083065D02*
X0200690Y0083065D01*
X0200092Y0082466D02*
X0241550Y0082466D01*
X0241550Y0074685D02*
X0188050Y0074685D01*
X0188050Y0074087D02*
X0241550Y0074087D01*
X0241550Y0073488D02*
X0188050Y0073488D01*
X0188050Y0072890D02*
X0241550Y0072890D01*
X0241550Y0072291D02*
X0188050Y0072291D01*
X0188050Y0071693D02*
X0241550Y0071693D01*
X0241550Y0071094D02*
X0188050Y0071094D01*
X0188050Y0070496D02*
X0241550Y0070496D01*
X0241550Y0069897D02*
X0188050Y0069897D01*
X0188050Y0069299D02*
X0241550Y0069299D01*
X0241550Y0068700D02*
X0188050Y0068700D01*
X0188050Y0068102D02*
X0241550Y0068102D01*
X0241550Y0067503D02*
X0234542Y0067503D01*
X0235141Y0066905D02*
X0241550Y0066905D01*
X0241550Y0066306D02*
X0235444Y0066306D01*
X0235444Y0065708D02*
X0241550Y0065708D01*
X0241550Y0065109D02*
X0235354Y0065109D01*
X0234756Y0064511D02*
X0241550Y0064511D01*
X0241550Y0063912D02*
X0229581Y0063912D01*
X0229291Y0063314D02*
X0241550Y0063314D01*
X0241550Y0062715D02*
X0229250Y0062715D01*
X0229250Y0062117D02*
X0241550Y0062117D01*
X0241550Y0061518D02*
X0229075Y0061518D01*
X0228730Y0060920D02*
X0241550Y0060920D01*
X0241550Y0060321D02*
X0228384Y0060321D01*
X0228071Y0059779D02*
X0228071Y0059779D01*
X0228071Y0059779D01*
X0227973Y0059723D02*
X0241550Y0059723D01*
X0241550Y0059124D02*
X0226937Y0059124D01*
X0226063Y0058526D02*
X0241550Y0058526D01*
X0241550Y0056730D02*
X0197950Y0056730D01*
X0197950Y0056787D02*
X0197950Y0055213D01*
X0196837Y0054100D01*
X0195263Y0054100D01*
X0194563Y0054800D01*
X0192076Y0054800D01*
X0188702Y0055896D01*
X0188702Y0055896D01*
X0188050Y0056370D01*
X0188050Y0056132D02*
X0188378Y0056132D01*
X0188050Y0055533D02*
X0189820Y0055533D01*
X0191050Y0055133D02*
X0191050Y0043100D01*
X0192550Y0043100D02*
X0192550Y0054800D01*
X0191662Y0054934D02*
X0188050Y0054934D01*
X0188050Y0054336D02*
X0195027Y0054336D01*
X0195050Y0054100D02*
X0184048Y0054100D01*
X0188050Y0053737D02*
X0241550Y0053737D01*
X0241550Y0053139D02*
X0188050Y0053139D01*
X0194050Y0054800D02*
X0194050Y0043100D01*
X0189550Y0043100D01*
X0194050Y0043100D02*
X0194309Y0043134D01*
X0194550Y0043234D01*
X0194757Y0043393D01*
X0194916Y0043600D01*
X0197073Y0054336D02*
X0241550Y0054336D01*
X0241550Y0054934D02*
X0197671Y0054934D01*
X0197950Y0055533D02*
X0241550Y0055533D01*
X0241550Y0056132D02*
X0197950Y0056132D01*
X0196050Y0056000D02*
X0193850Y0056000D01*
X0195050Y0058600D02*
X0189248Y0058600D01*
X0188050Y0059723D02*
X0222750Y0059723D01*
X0222750Y0060321D02*
X0188050Y0060321D01*
X0188050Y0060920D02*
X0223083Y0060920D01*
X0223681Y0061518D02*
X0188050Y0061518D01*
X0188050Y0062117D02*
X0226571Y0062117D01*
X0226812Y0062715D02*
X0188050Y0062715D01*
X0188050Y0063314D02*
X0226850Y0063314D01*
X0226850Y0063912D02*
X0188050Y0063912D01*
X0188050Y0064511D02*
X0227088Y0064511D01*
X0227433Y0065109D02*
X0188050Y0065109D01*
X0188050Y0065708D02*
X0227779Y0065708D01*
X0227949Y0066001D02*
X0227949Y0066001D01*
X0227949Y0066001D01*
X0228477Y0066306D02*
X0188050Y0066306D01*
X0188050Y0066905D02*
X0229513Y0066905D01*
X0230950Y0065900D02*
X0233750Y0065900D01*
X0232958Y0067503D02*
X0188050Y0067503D01*
X0182050Y0066887D02*
X0182050Y0068200D01*
X0180550Y0068111D02*
X0180550Y0057814D01*
X0177550Y0059176D02*
X0177550Y0066622D01*
X0177028Y0066100D02*
X0181950Y0066100D01*
X0185166Y0064600D02*
X0195050Y0064600D01*
X0193850Y0056000D02*
X0193608Y0056003D01*
X0193367Y0056012D01*
X0193126Y0056026D01*
X0192885Y0056047D01*
X0192645Y0056073D01*
X0192405Y0056105D01*
X0192166Y0056143D01*
X0191929Y0056186D01*
X0191692Y0056236D01*
X0191457Y0056291D01*
X0191223Y0056351D01*
X0190991Y0056418D01*
X0190760Y0056489D01*
X0190531Y0056567D01*
X0190304Y0056650D01*
X0190079Y0056738D01*
X0189856Y0056832D01*
X0189636Y0056931D01*
X0189418Y0057036D01*
X0189203Y0057145D01*
X0188990Y0057260D01*
X0188780Y0057380D01*
X0188574Y0057505D01*
X0188370Y0057635D01*
X0188169Y0057770D01*
X0187972Y0057910D01*
X0187778Y0058054D01*
X0187588Y0058203D01*
X0187402Y0058357D01*
X0187219Y0058515D01*
X0187040Y0058677D01*
X0186865Y0058844D01*
X0186694Y0059015D01*
X0186527Y0059190D01*
X0186365Y0059369D01*
X0186207Y0059552D01*
X0186053Y0059738D01*
X0185904Y0059928D01*
X0185760Y0060122D01*
X0185620Y0060319D01*
X0185485Y0060520D01*
X0185355Y0060724D01*
X0185230Y0060930D01*
X0185110Y0061140D01*
X0184995Y0061353D01*
X0184886Y0061568D01*
X0184781Y0061786D01*
X0184682Y0062006D01*
X0184588Y0062229D01*
X0184500Y0062454D01*
X0184417Y0062681D01*
X0184339Y0062910D01*
X0184268Y0063141D01*
X0184201Y0063373D01*
X0184141Y0063607D01*
X0184086Y0063842D01*
X0184036Y0064079D01*
X0183993Y0064316D01*
X0183955Y0064555D01*
X0183923Y0064795D01*
X0183897Y0065035D01*
X0183876Y0065276D01*
X0183862Y0065517D01*
X0183853Y0065758D01*
X0183850Y0066000D01*
X0177550Y0069677D02*
X0177550Y0074247D01*
X0176050Y0073688D02*
X0176050Y0068679D01*
X0176471Y0069100D02*
X0058086Y0069100D01*
X0058277Y0067600D02*
X0174971Y0067600D01*
X0179050Y0070298D02*
X0179050Y0075012D01*
X0179212Y0075100D02*
X0195050Y0075100D01*
X0195050Y0073600D02*
X0175686Y0073600D01*
X0169829Y0072100D02*
X0195050Y0072100D01*
X0181450Y0069400D02*
X0181276Y0069398D01*
X0181102Y0069392D01*
X0180928Y0069381D01*
X0180755Y0069366D01*
X0180582Y0069348D01*
X0180410Y0069324D01*
X0180238Y0069297D01*
X0180067Y0069266D01*
X0179896Y0069230D01*
X0179727Y0069191D01*
X0179559Y0069147D01*
X0179391Y0069099D01*
X0179225Y0069048D01*
X0179060Y0068992D01*
X0178897Y0068932D01*
X0178735Y0068868D01*
X0178575Y0068801D01*
X0178416Y0068729D01*
X0178259Y0068654D01*
X0178104Y0068575D01*
X0177951Y0068493D01*
X0177800Y0068406D01*
X0177651Y0068316D01*
X0177504Y0068223D01*
X0177360Y0068125D01*
X0177218Y0068025D01*
X0177078Y0067921D01*
X0176941Y0067814D01*
X0176807Y0067703D01*
X0176676Y0067589D01*
X0176547Y0067472D01*
X0176421Y0067352D01*
X0176298Y0067229D01*
X0176178Y0067103D01*
X0176061Y0066974D01*
X0175947Y0066843D01*
X0175836Y0066709D01*
X0175729Y0066572D01*
X0175625Y0066432D01*
X0175525Y0066290D01*
X0175427Y0066146D01*
X0175334Y0065999D01*
X0175244Y0065850D01*
X0175157Y0065699D01*
X0175075Y0065546D01*
X0174996Y0065391D01*
X0174921Y0065234D01*
X0174849Y0065075D01*
X0174782Y0064915D01*
X0174718Y0064753D01*
X0174658Y0064590D01*
X0174602Y0064425D01*
X0174551Y0064259D01*
X0174503Y0064091D01*
X0174459Y0063923D01*
X0174420Y0063754D01*
X0174384Y0063583D01*
X0174353Y0063412D01*
X0174326Y0063240D01*
X0174302Y0063068D01*
X0174284Y0062895D01*
X0174269Y0062722D01*
X0174258Y0062548D01*
X0174252Y0062374D01*
X0174250Y0062200D01*
X0168550Y0060698D02*
X0168550Y0071683D01*
X0167050Y0071683D02*
X0167050Y0060698D01*
X0165550Y0060698D02*
X0165550Y0071683D01*
X0164050Y0071683D02*
X0164050Y0060698D01*
X0162550Y0060698D02*
X0162550Y0071683D01*
X0161050Y0071683D02*
X0161050Y0060698D01*
X0159550Y0060698D02*
X0159550Y0071683D01*
X0158050Y0071683D02*
X0158050Y0060698D01*
X0156550Y0060698D02*
X0156550Y0071683D01*
X0155050Y0071683D02*
X0155050Y0060698D01*
X0153550Y0060698D02*
X0153550Y0071683D01*
X0152050Y0071683D02*
X0152050Y0060698D01*
X0150550Y0060698D02*
X0150550Y0071683D01*
X0149050Y0071683D02*
X0149050Y0060698D01*
X0147550Y0060698D02*
X0147550Y0071683D01*
X0146050Y0071683D02*
X0146050Y0060698D01*
X0144550Y0060698D02*
X0144550Y0071683D01*
X0143050Y0071683D02*
X0143050Y0060698D01*
X0141550Y0060698D02*
X0141550Y0071683D01*
X0140050Y0071683D02*
X0140050Y0060698D01*
X0138550Y0060698D02*
X0138550Y0071683D01*
X0137050Y0071683D02*
X0137050Y0060698D01*
X0135550Y0060698D02*
X0135550Y0071683D01*
X0134050Y0071683D02*
X0134050Y0060698D01*
X0132550Y0060698D02*
X0132550Y0071683D01*
X0131050Y0071683D02*
X0131050Y0060698D01*
X0129550Y0060698D02*
X0129550Y0071683D01*
X0128050Y0071683D02*
X0128050Y0060698D01*
X0126550Y0060698D02*
X0126550Y0071683D01*
X0125050Y0071683D02*
X0125050Y0060698D01*
X0123550Y0060698D02*
X0123550Y0071683D01*
X0122050Y0071683D02*
X0122050Y0060698D01*
X0120550Y0060698D02*
X0120550Y0071683D01*
X0119050Y0071683D02*
X0119050Y0060698D01*
X0117550Y0060698D02*
X0117550Y0071683D01*
X0116050Y0071683D02*
X0116050Y0060698D01*
X0114550Y0060698D02*
X0114550Y0071683D01*
X0113050Y0071683D02*
X0113050Y0060698D01*
X0111550Y0060698D02*
X0111550Y0071683D01*
X0110050Y0071683D02*
X0110050Y0060698D01*
X0108550Y0060698D02*
X0108550Y0071683D01*
X0107050Y0071683D02*
X0107050Y0060698D01*
X0105550Y0060698D02*
X0105550Y0071683D01*
X0104050Y0071683D02*
X0104050Y0060698D01*
X0102550Y0060698D02*
X0102550Y0071683D01*
X0101050Y0071683D02*
X0101050Y0060698D01*
X0099550Y0060698D02*
X0099550Y0071683D01*
X0098050Y0071683D02*
X0098050Y0060698D01*
X0096550Y0060698D02*
X0096550Y0071683D01*
X0095050Y0071683D02*
X0095050Y0060698D01*
X0093550Y0060698D02*
X0093550Y0071683D01*
X0092050Y0071683D02*
X0092050Y0060698D01*
X0090550Y0060698D02*
X0090550Y0071683D01*
X0089050Y0071683D02*
X0089050Y0060698D01*
X0087550Y0060698D02*
X0087550Y0071683D01*
X0086050Y0071683D02*
X0086050Y0060698D01*
X0084550Y0060698D02*
X0084550Y0071683D01*
X0083050Y0071683D02*
X0083050Y0060698D01*
X0081550Y0060698D02*
X0081550Y0071683D01*
X0080050Y0071683D02*
X0080050Y0060698D01*
X0078550Y0060698D02*
X0078550Y0071683D01*
X0077050Y0071683D02*
X0077050Y0060698D01*
X0075550Y0060698D02*
X0075550Y0071896D01*
X0070517Y0076600D02*
X0058050Y0076600D01*
X0058050Y0078100D02*
X0070517Y0078100D01*
X0073192Y0077632D02*
X0074780Y0077632D01*
X0074783Y0077633D01*
X0074785Y0077635D01*
X0074786Y0077638D01*
X0074787Y0077638D02*
X0073199Y0077638D01*
X0062688Y0077638D01*
X0058050Y0079600D02*
X0070550Y0079600D01*
X0070550Y0081100D02*
X0058050Y0081100D01*
X0058050Y0082600D02*
X0070550Y0082600D01*
X0073192Y0082632D02*
X0074780Y0082632D01*
X0074787Y0082638D01*
X0073199Y0082638D01*
X0073196Y0082637D01*
X0073194Y0082635D01*
X0073193Y0082632D01*
X0074780Y0082632D02*
X0074783Y0082633D01*
X0074785Y0082635D01*
X0074786Y0082638D01*
X0074785Y0082635D01*
X0074783Y0082633D01*
X0074780Y0082632D01*
X0070550Y0084100D02*
X0058050Y0084100D01*
X0058050Y0085600D02*
X0070550Y0085600D01*
X0070550Y0087100D02*
X0058050Y0087100D01*
X0058050Y0088600D02*
X0070550Y0088600D01*
X0070550Y0090100D02*
X0058050Y0090100D01*
X0055515Y0087632D02*
X0055509Y0087638D01*
X0053921Y0087638D01*
X0053921Y0082638D02*
X0055509Y0082638D01*
X0055515Y0082632D01*
X0055514Y0082635D01*
X0055512Y0082637D01*
X0055509Y0082638D01*
X0055469Y0077638D02*
X0053921Y0077638D01*
X0055469Y0077638D02*
X0055481Y0077636D01*
X0055492Y0077632D01*
X0055502Y0077625D01*
X0055509Y0077615D01*
X0055513Y0077604D01*
X0055515Y0077592D01*
X0058250Y0073200D02*
X0058252Y0073332D01*
X0058258Y0073463D01*
X0058268Y0073594D01*
X0058281Y0073725D01*
X0058299Y0073855D01*
X0058320Y0073985D01*
X0058345Y0074114D01*
X0058374Y0074242D01*
X0058407Y0074370D01*
X0058443Y0074496D01*
X0058484Y0074621D01*
X0058528Y0074745D01*
X0058575Y0074868D01*
X0058627Y0074989D01*
X0058681Y0075109D01*
X0058740Y0075227D01*
X0058801Y0075343D01*
X0058867Y0075457D01*
X0058935Y0075569D01*
X0059007Y0075679D01*
X0059082Y0075787D01*
X0059160Y0075893D01*
X0059242Y0075996D01*
X0059326Y0076097D01*
X0059413Y0076196D01*
X0059504Y0076291D01*
X0059597Y0076384D01*
X0059692Y0076475D01*
X0059791Y0076562D01*
X0059892Y0076646D01*
X0059995Y0076728D01*
X0060101Y0076806D01*
X0060209Y0076881D01*
X0060319Y0076953D01*
X0060431Y0077021D01*
X0060545Y0077087D01*
X0060661Y0077148D01*
X0060779Y0077207D01*
X0060899Y0077261D01*
X0061020Y0077313D01*
X0061143Y0077360D01*
X0061267Y0077404D01*
X0061392Y0077445D01*
X0061518Y0077481D01*
X0061646Y0077514D01*
X0061774Y0077543D01*
X0061903Y0077568D01*
X0062033Y0077589D01*
X0062163Y0077607D01*
X0062294Y0077620D01*
X0062425Y0077630D01*
X0062556Y0077636D01*
X0062688Y0077638D01*
X0073192Y0077632D02*
X0073199Y0077638D01*
X0073196Y0077637D01*
X0073194Y0077635D01*
X0073193Y0077632D01*
X0073194Y0077635D01*
X0073196Y0077637D01*
X0073199Y0077638D01*
X0073112Y0087632D02*
X0073118Y0087638D01*
X0074787Y0087638D01*
X0185832Y0057982D02*
X0185832Y0057982D01*
X0185832Y0057982D01*
X0187393Y0060100D02*
X0195050Y0060100D01*
X0224650Y0059800D02*
X0224850Y0059800D01*
X0225619Y0061518D02*
X0226147Y0061518D01*
X0224850Y0059800D02*
X0224962Y0059802D01*
X0225073Y0059808D01*
X0225184Y0059818D01*
X0225295Y0059831D01*
X0225406Y0059849D01*
X0225515Y0059870D01*
X0225624Y0059895D01*
X0225732Y0059924D01*
X0225839Y0059957D01*
X0225944Y0059993D01*
X0226049Y0060033D01*
X0226152Y0060077D01*
X0226253Y0060124D01*
X0226352Y0060175D01*
X0226450Y0060229D01*
X0226546Y0060286D01*
X0226639Y0060347D01*
X0226731Y0060411D01*
X0226820Y0060478D01*
X0226907Y0060549D01*
X0226991Y0060622D01*
X0227073Y0060698D01*
X0227152Y0060777D01*
X0227228Y0060859D01*
X0227301Y0060943D01*
X0227372Y0061030D01*
X0227439Y0061119D01*
X0227503Y0061211D01*
X0227564Y0061304D01*
X0227621Y0061400D01*
X0227675Y0061498D01*
X0227726Y0061597D01*
X0227773Y0061698D01*
X0227817Y0061801D01*
X0227857Y0061906D01*
X0227893Y0062011D01*
X0227926Y0062118D01*
X0227955Y0062226D01*
X0227980Y0062335D01*
X0228001Y0062444D01*
X0228019Y0062555D01*
X0228032Y0062666D01*
X0228042Y0062777D01*
X0228048Y0062888D01*
X0228050Y0063000D01*
X0230282Y0064511D02*
X0232744Y0064511D01*
X0230950Y0065900D02*
X0230844Y0065898D01*
X0230738Y0065892D01*
X0230633Y0065883D01*
X0230528Y0065869D01*
X0230423Y0065852D01*
X0230319Y0065831D01*
X0230216Y0065806D01*
X0230115Y0065777D01*
X0230014Y0065745D01*
X0229914Y0065709D01*
X0229816Y0065669D01*
X0229719Y0065626D01*
X0229624Y0065579D01*
X0229531Y0065529D01*
X0229439Y0065475D01*
X0229350Y0065419D01*
X0229263Y0065359D01*
X0229178Y0065295D01*
X0229095Y0065229D01*
X0229015Y0065160D01*
X0228937Y0065088D01*
X0228862Y0065013D01*
X0228790Y0064935D01*
X0228721Y0064855D01*
X0228655Y0064772D01*
X0228591Y0064687D01*
X0228531Y0064600D01*
X0228475Y0064511D01*
X0228421Y0064419D01*
X0228371Y0064326D01*
X0228324Y0064231D01*
X0228281Y0064134D01*
X0228241Y0064036D01*
X0228205Y0063936D01*
X0228173Y0063835D01*
X0228144Y0063734D01*
X0228119Y0063631D01*
X0228098Y0063527D01*
X0228081Y0063422D01*
X0228067Y0063317D01*
X0228058Y0063212D01*
X0228052Y0063106D01*
X0228050Y0063000D01*
D14*
X0224650Y0059800D03*
X0196050Y0056000D03*
X0174250Y0062200D03*
X0183850Y0066000D03*
X0184250Y0069400D03*
X0066550Y0092100D03*
X0058250Y0073200D03*
M02*
