%
M48
M72
T01C0.00787
T02C0.01000
T03C0.02008
T04C0.02756
T05C0.03543
%
T01
X77250Y71100
X87250Y71100
X96750Y71100
X107750Y71100
X118250Y71100
X128750Y71100
X139150Y71100
X149250Y71100
X159550Y71100
X182750Y76200
X188250Y75200
X192250Y79200
X195750Y75700
X203250Y74500
X207250Y79200
X212950Y74600
X218850Y74700
X221250Y79200
X230250Y79200
X233750Y65900
X231250Y62200
X223550Y66200
X218250Y65700
X207250Y66200
X198750Y66200
X186550Y63800
X198750Y55700
X207250Y55200
X215250Y55300
X222750Y54200
X187750Y81700
T02
X184250Y69400
X183850Y66000
X174250Y62200
X196050Y56000
X224650Y59800
X66550Y92100
X58250Y73200
T03
X53921Y77638
X53921Y82638
X53921Y87638
X53921Y92638
X74787Y92638
X74787Y87638
X74787Y82638
X74787Y77638
T04
X198711Y84307
T05
X231389Y48874
M30
